<?xml version="1.0" encoding="UTF-8" standalone="no"?>
<!DOCTYPE svg PUBLIC "-//W3C//DTD SVG 1.1//EN" "http://www.w3.org/Graphics/SVG/1.1/DTD/svg11.dtd">
<svg width="100%" height="100%" viewBox="0 0 9449 9384" version="1.1" xmlns="http://www.w3.org/2000/svg" xmlns:xlink="http://www.w3.org/1999/xlink" xml:space="preserve" xmlns:serif="http://www.serif.com/" style="fill-rule:evenodd;clip-rule:evenodd;stroke-linejoin:round;stroke-miterlimit:2;">
    <g transform="matrix(0.93737,0,0,0.983255,0,0)">
        <rect x="0" y="0" width="1260.02" height="1201.22" style="fill:rgb(0,0,32);"/>
    </g>
    <g transform="matrix(0.93737,0,0,0.983255,1181.1,0)">
        <rect x="0" y="0" width="1260.02" height="1201.22" style="fill:rgb(0,0,160);"/>
    </g>
    <g transform="matrix(0.93737,0,0,0.983255,0,1181.1)">
        <rect x="0" y="0" width="1260.02" height="1201.22" style="fill:rgb(0,0,224);"/>
    </g>
    <g transform="matrix(0.93737,0,0,0.983255,1181.1,1181.1)">
        <rect x="0" y="0" width="1260.02" height="1201.22" style="fill:rgb(0,0,32);"/>
    </g>
    <g transform="matrix(0.93737,0,0,0.983255,2362.2,0)">
        <rect x="0" y="0" width="1260.02" height="1201.22" style="fill:rgb(0,0,128);"/>
    </g>
    <g transform="matrix(0.93737,0,0,0.983255,3543.31,0)">
        <rect x="0" y="0" width="1260.02" height="1201.22" style="fill:rgb(0,0,224);"/>
    </g>
    <g transform="matrix(0.93737,0,0,0.983255,2362.2,1181.1)">
        <rect x="0" y="0" width="1260.02" height="1201.22" style="fill:rgb(0,0,192);"/>
    </g>
    <g transform="matrix(0.93737,0,0,0.983255,3543.31,1181.1)">
        <rect x="0" y="0" width="1260.02" height="1201.22" style="fill:rgb(0,0,32);"/>
    </g>
    <g transform="matrix(0.93737,0,0,0.983255,4724.41,0)">
        <rect x="0" y="0" width="1260.02" height="1201.22" style="fill:rgb(0,0,160);"/>
    </g>
    <g transform="matrix(0.93737,0,0,0.983255,5905.51,0)">
        <rect x="0" y="0" width="1260.02" height="1201.22" style="fill:rgb(0,0,96);"/>
    </g>
    <g transform="matrix(0.93737,0,0,0.983255,4724.41,1181.1)">
        <rect x="0" y="0" width="1260.02" height="1201.22" style="fill:rgb(0,0,128);"/>
    </g>
    <g transform="matrix(0.93737,0,0,0.983255,5905.51,1181.1)">
        <rect x="0" y="0" width="1260.02" height="1201.22" style="fill:rgb(0,0,255);"/>
    </g>
    <g transform="matrix(0.93737,0,0,0.983255,7086.61,0)">
        <rect x="0" y="0" width="1260.02" height="1201.22" style="fill:rgb(0,0,192);"/>
    </g>
    <g transform="matrix(0.93737,0,0,0.983255,8267.72,0)">
        <rect x="0" y="0" width="1260.02" height="1201.22" style="fill:rgb(0,0,128);"/>
    </g>
    <g transform="matrix(0.93737,0,0,0.983255,7086.61,1181.1)">
        <rect x="0" y="0" width="1260.02" height="1201.22" style="fill:rgb(0,0,192);"/>
    </g>
    <g transform="matrix(0.93737,0,0,0.983255,8267.72,1181.1)">
        <rect x="0" y="0" width="1260.02" height="1201.22" style="fill:rgb(0,0,160);"/>
    </g>
    <g transform="matrix(0.93737,0,0,0.983255,0,2362.53)">
        <rect x="0" y="0" width="1260.02" height="1201.22" style="fill:rgb(0,0,128);"/>
    </g>
    <g transform="matrix(0.93737,0,0,0.983255,1181.1,2362.53)">
        <rect x="0" y="0" width="1260.02" height="1201.22" style="fill:rgb(0,0,96);"/>
    </g>
    <g transform="matrix(0.93737,0,0,0.983255,0,3543.63)">
        <rect x="0" y="0" width="1260.02" height="1201.22" style="fill:rgb(0,0,32);"/>
    </g>
    <g transform="matrix(0.93737,0,0,0.983255,1181.1,3543.63)">
        <rect x="0" y="0" width="1260.02" height="1201.22" style="fill:rgb(0,0,160);"/>
    </g>
    <g transform="matrix(0.93737,0,0,0.983255,2362.2,2362.53)">
        <rect x="0" y="0" width="1260.02" height="1201.22" style="fill:rgb(0,0,64);"/>
    </g>
    <g transform="matrix(0.93737,0,0,0.983255,3543.31,2362.53)">
        <rect x="0" y="0" width="1260.02" height="1201.22" style="fill:rgb(0,0,255);"/>
    </g>
    <g transform="matrix(0.93737,0,0,0.983255,2362.2,3543.63)">
        <rect x="0" y="0" width="1260.02" height="1201.22" style="fill:rgb(0,0,64);"/>
    </g>
    <g transform="matrix(0.93737,0,0,0.983255,3543.31,3543.63)">
        <rect x="0" y="0" width="1260.02" height="1201.22" style="fill:rgb(0,0,32);"/>
    </g>
    <g transform="matrix(0.93737,0,0,0.983255,4724.41,2362.53)">
        <rect x="0" y="0" width="1260.02" height="1201.22" style="fill:rgb(0,0,96);"/>
    </g>
    <g transform="matrix(0.93737,0,0,0.983255,5905.51,2362.53)">
        <rect x="0" y="0" width="1260.02" height="1201.22" style="fill:rgb(0,0,64);"/>
    </g>
    <g transform="matrix(0.93737,0,0,0.983255,4724.41,3543.63)">
        <rect x="0" y="0" width="1260.02" height="1201.22" style="fill:rgb(0,0,32);"/>
    </g>
    <g transform="matrix(0.93737,0,0,0.983255,5905.51,3543.63)">
        <rect x="0" y="0" width="1260.02" height="1201.22" style="fill:rgb(0,0,255);"/>
    </g>
    <g transform="matrix(0.93737,0,0,0.983255,7086.61,2362.53)">
        <rect x="0" y="0" width="1260.02" height="1201.22" style="fill:rgb(0,0,64);"/>
    </g>
    <g transform="matrix(0.93737,0,0,0.983255,8267.72,2362.53)">
        <rect x="0" y="0" width="1260.02" height="1201.22" style="fill:rgb(0,0,128);"/>
    </g>
    <g transform="matrix(0.93737,0,0,0.983255,7086.61,3543.63)">
        <rect x="0" y="0" width="1260.02" height="1201.22" style="fill:rgb(0,0,32);"/>
    </g>
    <g transform="matrix(0.93737,0,0,0.983255,8267.72,3543.63)">
        <rect x="0" y="0" width="1260.02" height="1201.22" style="fill:rgb(0,0,64);"/>
    </g>
    <g transform="matrix(0.93737,0,0,0.983255,0,4659.45)">
        <rect x="0" y="0" width="1260.02" height="1201.22" style="fill:rgb(0,0,192);"/>
    </g>
    <g transform="matrix(0.93737,0,0,0.983255,1181.1,4659.45)">
        <rect x="0" y="0" width="1260.02" height="1201.22" style="fill:rgb(0,0,96);"/>
    </g>
    <g transform="matrix(0.93737,0,0,0.983255,0,5840.55)">
        <rect x="0" y="0" width="1260.02" height="1201.22" style="fill:rgb(0,0,32);"/>
    </g>
    <g transform="matrix(0.93737,0,0,0.983255,1181.1,5840.55)">
        <rect x="0" y="0" width="1260.02" height="1201.22" style="fill:rgb(0,0,64);"/>
    </g>
    <g transform="matrix(0.93737,0,0,0.983255,2362.2,4659.45)">
        <rect x="0" y="0" width="1260.02" height="1201.22" style="fill:rgb(0,0,192);"/>
    </g>
    <g transform="matrix(0.93737,0,0,0.983255,3543.31,4659.45)">
        <rect x="0" y="0" width="1260.02" height="1201.22" style="fill:rgb(0,0,96);"/>
    </g>
    <g transform="matrix(0.93737,0,0,0.983255,2362.2,5840.55)">
        <rect x="0" y="0" width="1260.02" height="1201.22" style="fill:rgb(0,0,32);"/>
    </g>
    <g transform="matrix(0.93737,0,0,0.983255,3543.31,5840.55)">
        <rect x="0" y="0" width="1260.02" height="1201.22" style="fill:rgb(0,0,224);"/>
    </g>
    <g transform="matrix(0.93737,0,0,0.983255,4724.41,4659.45)">
        <rect x="0" y="0" width="1260.02" height="1201.22" style="fill:rgb(0,0,64);"/>
    </g>
    <g transform="matrix(0.93737,0,0,0.983255,5905.51,4659.45)">
        <rect x="0" y="0" width="1260.02" height="1201.22" style="fill:rgb(0,0,128);"/>
    </g>
    <g transform="matrix(0.93737,0,0,0.983255,4724.41,5840.55)">
        <rect x="0" y="0" width="1260.02" height="1201.22" style="fill:rgb(0,0,96);"/>
    </g>
    <g transform="matrix(0.93737,0,0,0.983255,5905.51,5840.55)">
        <rect x="0" y="0" width="1260.02" height="1201.22" style="fill:rgb(0,0,32);"/>
    </g>
    <g transform="matrix(0.93737,0,0,0.983255,7086.61,4659.45)">
        <rect x="0" y="0" width="1260.02" height="1201.22" style="fill:rgb(0,0,64);"/>
    </g>
    <g transform="matrix(0.93737,0,0,0.983255,8267.72,4659.45)">
        <rect x="0" y="0" width="1260.02" height="1201.22" style="fill:rgb(0,0,128);"/>
    </g>
    <g transform="matrix(0.93737,0,0,0.983255,7086.61,5840.55)">
        <rect x="0" y="0" width="1260.02" height="1201.22" style="fill:rgb(0,0,96);"/>
    </g>
    <g transform="matrix(0.93737,0,0,0.983255,8267.72,5840.55)">
        <rect x="0" y="0" width="1260.02" height="1201.22" style="fill:rgb(0,0,64);"/>
    </g>
    <g transform="matrix(0.93737,0,0,0.983255,0,7021.65)">
        <rect x="0" y="0" width="1260.02" height="1201.22" style="fill:rgb(0,0,224);"/>
    </g>
    <g transform="matrix(0.93737,0,0,0.983255,1181.1,7021.65)">
        <rect x="0" y="0" width="1260.02" height="1201.22" style="fill:rgb(0,0,255);"/>
    </g>
    <g transform="matrix(0.93737,0,0,0.983255,0,8202.76)">
        <rect x="0" y="0" width="1260.02" height="1201.22" style="fill:rgb(0,0,128);"/>
    </g>
    <g transform="matrix(0.93737,0,0,0.983255,1181.1,8202.76)">
        <rect x="0" y="0" width="1260.02" height="1201.22" style="fill:rgb(0,0,160);"/>
    </g>
    <g transform="matrix(0.93737,0,0,0.983255,2362.2,7021.65)">
        <rect x="0" y="0" width="1260.02" height="1201.22" style="fill:rgb(0,0,255);"/>
    </g>
    <g transform="matrix(0.93737,0,0,0.983255,3543.31,7021.65)">
        <rect x="0" y="0" width="1260.02" height="1201.22" style="fill:rgb(0,0,192);"/>
    </g>
    <g transform="matrix(0.93737,0,0,0.983255,2362.2,8202.76)">
        <rect x="0" y="0" width="1260.02" height="1201.22" style="fill:rgb(0,0,64);"/>
    </g>
    <g transform="matrix(0.93737,0,0,0.983255,3543.31,8202.76)">
        <rect x="0" y="0" width="1260.02" height="1201.22" style="fill:rgb(0,0,32);"/>
    </g>
    <g transform="matrix(0.93737,0,0,0.983255,4724.41,7021.65)">
        <rect x="0" y="0" width="1260.02" height="1201.22" style="fill:rgb(0,0,64);"/>
    </g>
    <g transform="matrix(0.93737,0,0,0.983255,5905.51,7021.65)">
        <rect x="0" y="0" width="1260.02" height="1201.22" style="fill:rgb(0,0,96);"/>
    </g>
    <g transform="matrix(0.93737,0,0,0.983255,4724.41,8202.76)">
        <rect x="0" y="0" width="1260.02" height="1201.22" style="fill:rgb(0,0,128);"/>
    </g>
    <g transform="matrix(0.93737,0,0,0.983255,5905.51,8202.76)">
        <rect x="0" y="0" width="1260.02" height="1201.22" style="fill:rgb(0,0,96);"/>
    </g>
    <g transform="matrix(0.93737,0,0,0.983255,7086.61,7021.65)">
        <rect x="0" y="0" width="1260.02" height="1201.22" style="fill:rgb(0,0,160);"/>
    </g>
    <g transform="matrix(0.93737,0,0,0.983255,8267.72,7021.65)">
        <rect x="0" y="0" width="1260.02" height="1201.22" style="fill:rgb(0,0,255);"/>
    </g>
    <g transform="matrix(0.93737,0,0,0.983255,7086.61,8202.76)">
        <rect x="0" y="0" width="1260.02" height="1201.22" style="fill:rgb(0,0,96);"/>
    </g>
    <g transform="matrix(0.93737,0,0,0.983255,8267.72,8202.76)">
        <rect x="0" y="0" width="1260.02" height="1201.22" style="fill:rgb(0,0,160);"/>
    </g>
</svg>
