<?xml version="1.0" encoding="UTF-8" standalone="no"?>
<!DOCTYPE svg PUBLIC "-//W3C//DTD SVG 1.1//EN" "http://www.w3.org/Graphics/SVG/1.1/DTD/svg11.dtd">
<svg width="100%" height="100%" viewBox="0 0 5834 4085" version="1.1" xmlns="http://www.w3.org/2000/svg" xmlns:xlink="http://www.w3.org/1999/xlink" xml:space="preserve" xmlns:serif="http://www.serif.com/" style="fill-rule:evenodd;clip-rule:evenodd;stroke-linejoin:round;stroke-miterlimit:2;">
    <g transform="matrix(1,0,0,1,0,1.21627)">
        <g transform="matrix(4.16667,0,0,4.16667,0,0)">
            <path d="M613.988,0.818C613.97,0.857 613.952,0.896 613.934,0.935L614.007,1.017C614.001,0.951 613.995,0.885 613.988,0.818Z" style="fill:rgb(255,192,0);fill-rule:nonzero;"/>
        </g>
        <g transform="matrix(4.16667,0,0,4.16667,0,0)">
            <path d="M4.997,865.814C4.045,864.481 2.729,863.659 1.429,862.458C3.541,859.966 4.956,860.702 6.231,860.701C61.129,860.656 116.028,860.635 170.927,860.739C173.755,860.745 175.773,859.699 177.806,856.832C205.442,817.862 233.17,779.02 260.87,740.138C261.672,739.012 262.412,737.801 263.182,736.63C262.332,735.577 261.439,734.585 260.639,733.463C233.656,695.623 206.682,657.77 179.707,619.918C179.224,619.24 178.716,618.592 178.271,617.868C177.856,617.193 177.03,616.567 177.53,615.537C177.759,615.067 178.514,615.014 179.043,614.939C179.719,614.843 180.408,614.915 181.091,614.915C235.866,614.915 290.641,614.91 345.416,614.948C346.725,614.949 348.166,614.254 349.333,615.779C349.77,615.174 350.208,614.569 350.645,613.964C322.163,573.985 293.68,534.007 265.198,494.029C264.434,493.254 264.372,492.421 265.367,492.164C266.361,491.907 267.409,492.036 268.433,492.036C323.804,492.032 379.175,492.033 434.546,492.033L437.569,492.033C408.865,451.759 380.272,411.638 351.463,371.216C353.525,368.921 354.915,369.556 356.162,369.556C411.077,369.517 465.993,369.489 520.908,369.613C523.906,369.62 525.956,368.314 528.036,365.382C555.528,326.637 583.101,288.006 610.649,249.339C611.531,248.099 612.354,246.775 613.204,245.49C612.354,244.437 611.461,243.446 610.661,242.324C583.678,204.483 556.704,166.63 529.729,128.778C529.246,128.1 528.738,127.453 528.293,126.728C527.878,126.053 527.052,125.427 527.552,124.397C527.781,123.927 528.537,123.874 529.065,123.799C529.741,123.703 530.43,123.775 531.113,123.775C585.888,123.775 640.663,123.77 695.438,123.808C696.747,123.809 698.188,123.114 699.354,124.639C699.784,124.042 700.215,123.446 700.645,122.849C672.512,83.372 644.378,43.895 616.25,4.412C615.451,3.291 614.704,2.096 613.934,0.935C612.147,0.805 611.424,2.938 610.426,4.338C582.233,43.894 554.05,83.465 525.943,123.142C524.594,125.046 523.254,124.515 521.888,124.517C466.752,124.566 411.616,124.559 356.481,124.559L352.444,124.559C352.388,124.692 352.334,124.831 352.289,124.987C352.251,125.117 352.228,125.243 352.204,125.368C381.265,166.147 409.72,206.073 438.51,246.473C381.247,246.473 324.592,246.466 267.936,246.508C266.507,246.509 264.964,245.888 263.638,247.149C263.632,247.336 263.649,247.498 263.671,247.653C263.99,247.877 264.31,248.101 264.634,248.326C265.368,246.782 266.5,247.465 267.442,247.464C323.22,247.428 378.998,247.432 434.776,247.438C435.22,247.438 435.664,247.515 436.062,247.552C436.386,248.401 436.006,248.843 435.699,249.273C407.352,289.007 379.002,328.736 350.651,368.466C349.237,370.365 347.555,369.011 346.053,369.014C290.833,369.113 235.613,369.105 180.392,369.057C178.994,369.056 177.406,369.915 176.211,368.029C175.18,370.24 173.57,369.433 172.18,369.433C116.695,369.466 61.21,369.461 5.725,369.464C4.701,369.464 3.638,369.284 2.664,369.608C1.937,369.849 2.029,370.703 2.731,371.192C3.781,369.721 5.108,370.411 6.298,370.411C61.776,370.372 117.253,370.377 172.73,370.38C174.201,370.38 175.698,370.136 177.074,371.172C177.574,369.142 178.809,370.059 179.685,370.058C235.585,370.009 291.484,370.014 347.384,370.021C347.831,370.021 348.278,370.11 348.743,370.16C348.951,371.86 347.92,372.386 347.342,373.198C319.99,411.63 292.619,450.036 265.233,488.422C264.463,489.501 263.898,491.118 262.533,491.038C262.635,491.748 262.921,492.293 262.345,493.097C234.263,532.314 206.166,571.512 178.234,610.941C175.667,614.565 173.254,615.814 169.725,615.805C115.296,615.652 60.866,615.698 6.436,615.698L2.511,615.698C31.312,656.111 59.951,696.295 88.589,736.479C88.356,736.857 88.122,737.235 87.888,737.612L0,737.612L0,738.572L85.951,738.572C86.526,739.962 85.672,740.402 85.265,740.974C57.12,780.501 28.96,820.006 0.797,859.508C0.559,859.843 0.267,860.103 0,860.397L0,979.93L86.168,979.93C85.297,978.603 84.449,977.243 83.541,975.968C57.372,939.232 31.203,902.498 4.997,865.814Z" style="fill:rgb(255,192,0);fill-rule:nonzero;"/>
        </g>
        <g transform="matrix(4.16667,0,0,4.16667,0,0)">
            <path d="M180.068,865.793C179.2,864.575 178.368,863.306 177.45,861.959C178.295,860.625 179.256,861.117 180.073,861.116C235.163,861.089 290.254,861.085 345.345,861.134C346.478,861.135 347.905,860.233 348.695,862.356C349.588,861.709 350.365,860.896 350.738,859.514C342.981,848.713 335.203,837.941 327.472,827.105C307.325,798.871 287.194,770.615 267.082,742.333C266.256,741.172 265.032,740.345 264.801,737.899L268.199,737.899C323.211,737.899 378.222,737.895 433.234,737.933C434.431,737.934 435.738,737.281 436.837,738.577C437.582,738.12 438.494,737.712 437.637,736.247C437.061,735.264 436.374,734.408 435.73,733.505C408.838,695.769 381.951,658.027 355.03,620.333C354.076,618.997 352.778,618.146 351.442,616.881C353.464,614.346 354.869,615.029 356.108,615.029C410.992,614.988 465.877,614.958 520.761,615.085C523.823,615.092 525.954,613.965 528.153,610.867C556.358,571.139 584.674,531.566 612.955,491.943C613.102,491.736 613.141,491.378 613.231,491.091C606.606,481.871 599.96,472.681 593.359,463.427C572.261,433.852 551.179,404.254 530.094,374.659C529.224,373.439 528.39,372.168 527.477,370.829C528.31,369.478 529.274,369.977 530.089,369.977C585.182,369.949 640.274,369.946 695.366,369.994C696.5,369.995 697.927,369.093 698.718,371.216C699.418,370.532 700.119,369.847 700.821,369.162L700.82,369.162C700,367.861 699.225,366.496 698.352,365.269C671.304,327.292 644.244,289.332 617.203,251.345C616.347,250.143 615.226,249.205 614.804,247.342C615.957,246.194 617.236,246.794 618.416,246.792C644.722,246.75 671.029,246.764 697.335,246.747C698.694,246.746 700.053,246.568 701.412,246.473C702.769,246.568 704.125,246.746 705.483,246.747C731.865,246.764 758.247,246.749 784.629,246.794C785.824,246.796 787.129,246.143 788.226,247.437C791.189,244.688 787.95,243.712 787.297,242.791C760.319,204.727 733.251,166.788 706.22,128.798C705.314,127.525 703.984,126.595 703.812,124.414C704.906,123.383 706.069,123.885 707.155,123.88C717.63,123.836 728.105,123.854 738.581,123.854C783.558,123.854 828.534,123.853 873.51,123.855C875.196,123.855 876.642,123.837 878.095,121.774C892.819,100.862 907.674,80.131 922.476,59.326C936.311,39.879 950.126,20.404 963.949,0.941C905.588,0.96 847.227,0.979 788.866,0.999C788.343,1.836 787.853,2.719 787.293,3.505C759.27,42.842 731.24,82.172 703.206,121.493C702.646,122.278 702.011,122.958 701.412,123.688L701.412,122.728C701.156,122.769 700.9,122.809 700.645,122.849C700.215,123.446 699.784,124.042 699.354,124.639C698.51,125.92 697.697,127.244 696.818,128.477C669.787,166.424 642.751,204.364 615.709,242.295C614.912,243.413 614.041,244.427 613.204,245.49C612.354,246.775 611.531,248.099 610.649,249.339C583.101,288.006 555.528,326.637 528.036,365.382C525.956,368.314 523.906,369.62 520.908,369.613C465.993,369.489 411.077,369.517 356.162,369.556C354.915,369.556 353.525,368.921 351.463,371.216C380.272,411.638 408.865,451.759 437.569,492.033L434.546,492.033C379.175,492.033 323.804,492.032 268.433,492.036C267.409,492.036 266.361,491.907 265.367,492.164C264.372,492.421 264.434,493.254 265.198,494.029C265.898,492.461 267.029,493.016 267.989,493.015C323.683,492.99 379.378,492.993 435.073,493C435.411,493 435.749,493.087 436.082,493.133C436.522,494.395 435.729,494.869 435.302,495.467C407.449,534.583 379.583,573.681 351.712,612.774C351.393,613.222 351.002,613.57 350.645,613.964C350.208,614.569 349.77,615.174 349.333,615.779C348.489,617.06 347.675,618.384 346.796,619.617C319.765,657.564 292.729,695.504 265.687,733.435C264.89,734.553 264.018,735.567 263.182,736.63C262.412,737.801 261.672,739.012 260.87,740.138C233.17,779.02 205.442,817.862 177.806,856.832C175.773,859.699 173.755,860.745 170.927,860.739C116.028,860.635 61.129,860.656 6.231,860.701C4.956,860.702 3.541,859.966 1.429,862.458C2.729,863.659 4.045,864.481 4.997,865.814C31.203,902.498 57.372,939.232 83.541,975.968C84.449,977.243 85.297,978.603 86.168,979.93L261.555,979.93C255.958,972.157 250.35,964.401 244.779,956.591C223.2,926.339 201.635,896.064 180.068,865.793Z" style="fill:rgb(192,128,0);fill-rule:nonzero;"/>
        </g>
        <g transform="matrix(4.16667,0,0,4.16667,0,0)">
            <path d="M613.222,738.571" style="fill:rgb(255,128,0);fill-rule:nonzero;"/>
        </g>
        <g transform="matrix(4.16667,0,0,4.16667,0,0)">
            <path d="M352.752,862.33C352.046,861.836 351.97,860.983 352.693,860.746C353.668,860.426 354.73,860.604 355.755,860.604C411.239,860.601 466.724,860.606 522.209,860.573C523.599,860.573 525.209,861.377 526.236,859.16C527.563,857.199 528.861,855.197 530.223,853.285C556.701,816.114 583.182,778.947 609.688,741.816C610.679,740.429 611.391,738.239 613.222,738.571C613.25,737.939 613.278,737.307 613.306,736.676C612.543,735.725 611.743,734.826 611.022,733.816C583.88,695.748 556.745,657.672 529.614,619.59C528.909,618.6 528.26,617.533 527.662,616.62C527.847,615.42 528.404,615.637 528.801,615.637C585.622,615.644 642.443,615.669 699.264,615.694C699.459,615.608 699.659,615.575 699.863,615.597L699.864,615.597C700.071,615.224 700.525,614.972 700.672,614.57C700.686,614.488 700.704,614.402 700.713,614.322C700.717,614.095 700.633,613.826 700.375,613.471C699.724,612.578 699.093,611.655 698.449,610.75C671.469,572.893 644.494,535.028 617.486,497.211C616.631,496.015 615.429,495.308 614.495,494.22C615.687,492.265 616.427,492.685 617.047,492.684C644.61,492.661 672.173,492.664 699.736,492.681C700.295,492.681 700.853,492.89 701.412,493.002C702.196,492.889 702.98,492.678 703.765,492.677C730.917,492.66 758.069,492.66 785.221,492.679C786.003,492.68 786.785,492.914 787.566,493.039C791.233,492.297 789,490.46 787.926,488.953C760.623,450.62 733.311,412.299 706.004,373.971C705.364,373.073 704.762,372.12 704.143,371.192C703.441,370.703 703.35,369.849 704.076,369.608C705.05,369.284 706.113,369.464 707.137,369.464C762.622,369.461 818.107,369.466 873.592,369.433C874.982,369.433 876.592,370.24 877.622,368.029C878.467,366.746 879.281,365.422 880.16,364.188C907.123,326.337 934.088,288.489 961.078,250.676C962.068,249.288 962.781,247.1 964.612,247.431C964.639,246.799 964.667,246.167 964.695,245.535C964.093,244.811 963.454,244.139 962.894,243.354C935.511,204.947 908.134,166.532 880.762,128.11C880.136,127.232 879.568,126.273 879.052,125.474C879.237,124.28 879.793,124.497 880.191,124.497C937.012,124.504 993.833,124.53 1050.65,124.554C1051.59,124.614 1052.39,124.467 1052.15,122.676C1023.22,82.066 994.291,41.456 965.362,0.846L965.327,0.814C964.867,0.856 964.408,0.899 963.949,0.941C950.126,20.404 936.311,39.879 922.476,59.326C907.674,80.131 892.819,100.862 878.095,121.774C876.642,123.837 875.196,123.855 873.51,123.855C828.534,123.853 783.558,123.854 738.581,123.854C728.105,123.854 717.63,123.836 707.155,123.88C706.069,123.885 704.906,123.383 703.812,124.414C703.984,126.595 705.314,127.525 706.22,128.798C733.251,166.788 760.319,204.727 787.297,242.791C787.95,243.712 791.189,244.688 788.226,247.437C777.562,262.472 766.921,277.54 756.228,292.535C737.973,318.133 719.686,343.686 701.412,369.258L701.111,369.267L700.821,369.162C700.119,369.847 699.418,370.532 698.718,371.216C670.222,411.174 641.726,451.133 613.231,491.091C613.141,491.378 613.102,491.736 612.955,491.943C584.674,531.566 556.358,571.139 528.153,610.867C525.954,613.965 523.823,615.092 520.761,615.085C465.877,614.958 410.992,614.988 356.108,615.029C354.869,615.029 353.464,614.346 351.442,616.881C352.778,618.146 354.076,618.997 355.03,620.333C381.951,658.027 408.838,695.769 435.73,733.505C436.374,734.408 437.061,735.264 437.637,736.247C438.494,737.712 437.582,738.12 436.837,738.577C425.684,754.298 414.549,770.043 403.374,785.732C385.843,810.346 368.284,834.922 350.738,859.514C350.365,860.896 349.588,861.709 348.695,862.356C320.742,901.548 292.789,940.739 264.835,979.93L436.466,979.93C408.562,940.73 380.657,901.53 352.752,862.33Z" style="fill:rgb(255,128,0);fill-rule:nonzero;"/>
        </g>
        <g transform="matrix(4.16667,0,0,4.16667,0,0)">
            <path d="M263.3,247.433L263.2,247.431C263.2,247.431 263.254,247.432 263.3,247.433Z" style="fill:rgb(255,128,0);fill-rule:nonzero;"/>
        </g>
        <g transform="matrix(4.16667,0,0,4.16667,0,0)">
            <path d="M83.809,492.679C84.59,492.68 85.372,492.914 86.154,493.039C89.82,492.297 87.588,490.46 86.514,488.953C59.211,450.62 31.899,412.299 4.592,373.971C3.952,373.073 3.35,372.12 2.731,371.192C2.029,370.703 1.937,369.849 2.664,369.608C3.638,369.284 4.701,369.464 5.725,369.464C61.21,369.461 116.695,369.466 172.18,369.433C173.57,369.433 175.18,370.24 176.211,368.029C177.055,366.746 177.87,365.422 178.749,364.188C205.711,326.337 232.676,288.489 259.665,250.676C260.657,249.288 261.368,247.1 263.2,247.431C263.228,246.799 263.256,246.167 263.284,245.535C262.682,244.811 262.042,244.139 261.483,243.354C234.099,204.947 206.723,166.532 179.35,128.11C178.724,127.232 178.156,126.273 177.64,125.474C177.825,124.28 178.382,124.497 178.779,124.497C235.6,124.504 292.421,124.53 349.242,124.554C350.178,124.614 350.982,124.467 350.737,122.676C321.808,82.066 292.879,41.456 263.95,0.846L263.915,0.814C263.456,0.856 262.997,0.899 262.538,0.941C248.714,20.404 234.899,39.879 221.064,59.326C206.263,80.131 191.407,100.862 176.683,121.774C175.23,123.837 173.784,123.855 172.099,123.855C127.122,123.853 82.145,123.854 37.169,123.854C26.693,123.854 16.218,123.836 5.742,123.88C4.657,123.885 3.494,123.383 2.4,124.414C2.572,126.595 3.902,127.525 4.807,128.798C31.839,166.788 58.906,204.727 85.884,242.791C86.538,243.712 89.777,244.688 86.814,247.437C76.149,262.472 65.509,277.54 54.815,292.535C36.561,318.133 18.273,343.686 0,369.258L0,493.002C0.784,492.889 1.568,492.678 2.353,492.677C29.505,492.66 56.657,492.66 83.809,492.679Z" style="fill:rgb(255,128,0);fill-rule:nonzero;"/>
        </g>
        <g transform="matrix(4.16667,0,0,4.16667,0,0)">
            <path d="M88.589,736.479C59.951,696.295 31.312,656.111 2.511,615.698L6.436,615.698C60.866,615.698 115.296,615.652 169.725,615.805C173.254,615.814 175.667,614.565 178.234,610.941C206.166,571.512 234.263,532.314 262.345,493.097C262.921,492.293 262.635,491.748 262.533,491.038C234.046,451.083 205.56,411.128 177.074,371.172C175.698,370.136 174.201,370.38 172.73,370.38C117.253,370.377 61.776,370.372 6.298,370.411C5.108,370.411 3.781,369.721 2.731,371.192C3.35,372.12 3.952,373.073 4.592,373.971C31.899,412.299 59.211,450.62 86.514,488.953C87.588,490.46 89.82,492.297 86.154,493.039C85.514,494.138 84.936,495.324 84.225,496.323C56.945,534.631 29.654,572.924 2.355,611.205C1.643,612.202 1.068,613.477 0,613.868L0,737.612L87.888,737.612C88.122,737.235 88.356,736.857 88.589,736.479Z" style="fill:rgb(128,64,0);fill-rule:nonzero;"/>
        </g>
        <g transform="matrix(4.16667,0,0,4.16667,0,0)">
            <path d="M436.865,1.874C436.266,2.602 435.631,3.28 435.072,4.065C407.563,42.649 380.06,81.24 352.562,119.839C351.921,120.739 351.344,121.728 350.737,122.676C350.982,124.467 350.178,124.614 349.242,124.554C348.397,125.837 347.581,127.161 346.701,128.396C318.899,167.448 291.091,206.491 263.284,245.535C263.256,246.167 263.228,246.799 263.2,247.431L263.3,247.433L263.347,247.433C263.442,247.319 263.541,247.242 263.638,247.149C264.964,245.888 266.507,246.509 267.936,246.508C324.592,246.466 381.247,246.473 438.51,246.473C409.72,206.073 381.265,166.147 352.204,125.368C352.011,125.098 351.819,124.829 351.627,124.559L356.481,124.559C411.616,124.559 466.752,124.566 521.888,124.517C523.254,124.515 524.594,125.046 525.943,123.142C554.05,83.465 582.233,43.894 610.426,4.338C611.424,2.938 612.147,0.805 613.934,0.935C613.952,0.896 613.97,0.857 613.988,0.818C613.961,0.527 613.934,0.235 613.906,-0.056L460.088,-0.056C458.993,1.671 457.543,0.832 456.264,0.86C451.524,0.967 446.781,0.942 442.04,0.873C440.975,0.857 439.751,1.504 438.895,-0.056L437.528,-0.056C437.518,0.73 437.411,1.45 436.865,1.874Z" style="fill:rgb(128,64,0);fill-rule:nonzero;"/>
        </g>
        <g transform="matrix(4.16667,0,0,4.16667,0,0)">
            <path d="M83.217,246.794C84.412,246.796 85.717,246.143 86.814,247.437C89.777,244.688 86.538,243.712 85.884,242.791C58.906,204.727 31.839,166.788 4.807,128.798C3.902,127.525 2.572,126.595 2.4,124.414C3.494,123.383 4.657,123.885 5.742,123.88C16.218,123.836 26.693,123.854 37.169,123.854C82.145,123.854 127.122,123.853 172.099,123.855C173.784,123.855 175.23,123.837 176.683,121.774C191.407,100.862 206.263,80.131 221.064,59.326C234.899,39.879 248.714,20.404 262.538,0.941C204.177,0.96 145.816,0.979 87.454,0.999C86.931,1.836 86.441,2.719 85.881,3.505C57.857,42.842 29.828,82.172 1.793,121.493C1.234,122.278 0.599,122.958 0,123.688L0,246.473C1.356,246.568 2.713,246.746 4.07,246.747C30.453,246.764 56.835,246.749 83.217,246.794Z" style="fill:rgb(192,128,0);fill-rule:nonzero;"/>
        </g>
        <g transform="matrix(4.16667,0,0,4.16667,0,0)">
            <path d="M87.514,0.888L87.327,0.888C87.369,0.925 87.412,0.962 87.454,0.999L87.514,0.888Z" style="fill:rgb(192,128,0);fill-rule:nonzero;"/>
        </g>
        <g transform="matrix(4.16667,0,0,4.16667,0,0)">
            <path d="M522.752,861.52C467.275,861.516 411.798,861.512 356.321,861.55C355.13,861.551 353.803,860.863 352.752,862.33C380.657,901.53 408.562,940.73 436.466,979.93L610.961,979.93C583.006,940.724 555.051,901.518 527.095,862.311C525.719,861.276 524.222,861.52 522.752,861.52Z" style="fill:rgb(128,64,0);fill-rule:nonzero;"/>
        </g>
        <g transform="matrix(4.16667,0,0,4.16667,0,0)">
            <path d="M85.881,3.505C86.441,2.719 86.931,1.836 87.454,0.999C87.412,0.962 87.369,0.925 87.327,0.888C58.218,0.893 29.109,0.898 0,0.903L0,123.688C0.599,122.958 1.234,122.278 1.793,121.493C29.828,82.172 57.857,42.842 85.881,3.505Z" style="fill:rgb(255,128,0);fill-rule:nonzero;"/>
        </g>
        <g transform="matrix(4.16667,0,0,4.16667,0,0)">
            <path d="M614.007,1.017L613.934,0.935C614.704,2.096 615.451,3.291 616.25,4.412C644.378,43.895 672.512,83.372 700.645,122.849C700.9,122.809 701.156,122.769 701.412,122.728L701.412,123.688C702.011,122.958 702.646,122.278 703.206,121.493C731.24,82.172 759.27,42.842 787.293,3.505C787.853,2.719 788.343,1.836 788.866,0.999C788.824,0.962 788.781,0.925 788.739,0.888C759.63,0.893 730.521,0.898 701.412,0.903C672.277,0.941 643.142,0.979 614.007,1.017Z" style="fill:rgb(255,128,0);fill-rule:nonzero;"/>
        </g>
        <g transform="matrix(4.16667,0,0,4.16667,0,0)">
            <path d="M86.814,247.437C85.717,246.143 84.412,246.796 83.217,246.794C56.835,246.749 30.453,246.764 4.07,246.747C2.713,246.746 1.356,246.568 0,246.473L0,369.258C18.273,343.686 36.561,318.133 54.815,292.535C65.509,277.54 76.149,262.472 86.814,247.437Z" style="fill:rgb(128,64,0);fill-rule:nonzero;"/>
        </g>
        <g transform="matrix(4.16667,0,0,4.16667,0,0)">
            <path d="M701.412,615.787L701.412,613.868C702.481,613.477 703.056,612.202 703.767,611.205C731.066,572.924 758.357,534.631 785.637,496.323C786.348,495.324 786.926,494.138 787.566,493.039C786.785,492.914 786.003,492.68 785.221,492.679C758.069,492.66 730.917,492.66 703.765,492.677C702.98,492.678 702.196,492.889 701.412,493.002C700.853,492.89 700.295,492.681 699.736,492.681C672.173,492.664 644.61,492.661 617.047,492.684C616.427,492.685 615.687,492.265 614.495,494.22C615.429,495.308 616.631,496.015 617.486,497.211C644.494,535.028 671.469,572.893 698.449,610.75C699.093,611.655 699.724,612.578 700.375,613.471C700.633,613.826 700.717,614.095 700.713,614.322C700.711,614.411 700.7,614.495 700.672,614.57C700.525,614.972 700.071,615.224 699.864,615.597L699.863,615.597C700.38,615.66 700.896,615.723 701.412,615.787Z" style="fill:rgb(224,128,0);fill-rule:nonzero;"/>
        </g>
        <g transform="matrix(4.16667,0,0,4.16667,0,0)">
            <path d="M85.265,740.974C85.672,740.402 86.526,739.962 85.951,738.572L0,738.572L0,860.397C0.267,860.103 0.559,859.843 0.797,859.508C28.96,820.006 57.12,780.501 85.265,740.974Z" style="fill:rgb(192,128,0);fill-rule:nonzero;"/>
        </g>
        <g transform="matrix(4.16667,0,0,4.16667,0,0)">
            <path d="M616.417,738.309C615.823,738.31 615.002,737.838 614.693,739.454C643.339,779.632 672.046,819.895 700.752,860.157C700.774,860.188 700.796,860.219 700.819,860.25L701.129,860.215L701.412,860.397C701.679,860.103 701.971,859.843 702.21,859.508C730.372,820.006 758.532,780.501 786.677,740.974C787.084,740.402 787.939,739.962 787.363,738.572L701.412,738.572C700.964,738.479 700.517,738.304 700.069,738.304C672.185,738.289 644.301,738.286 616.417,738.309Z" style="fill:rgb(192,128,0);fill-rule:nonzero;"/>
        </g>
        <g transform="matrix(4.16667,0,0,4.16667,0,0)">
            <path d="M2.355,611.205C29.654,572.924 56.945,534.631 84.225,496.323C84.936,495.324 85.514,494.138 86.154,493.039C85.372,492.914 84.59,492.68 83.809,492.679C56.657,492.66 29.505,492.66 2.353,492.677C1.568,492.678 0.784,492.889 0,493.002L0,613.868C1.068,613.477 1.643,612.202 2.355,611.205Z" style="fill:rgb(224,128,0);fill-rule:nonzero;"/>
        </g>
        <g transform="matrix(4.16667,0,0,4.16667,0,0)">
            <path d="M87.514,0.888L87.454,0.999C145.816,0.979 204.177,0.96 262.538,0.941C262.997,0.899 263.456,0.856 263.915,0.814C263.94,0.521 263.929,0.231 263.884,-0.056L87.505,-0.056C87.523,0.258 87.527,0.573 87.514,0.888Z" style="fill:rgb(85,85,85);fill-rule:nonzero;"/>
        </g>
        <g transform="matrix(4.16667,0,0,4.16667,0,0)">
            <path d="M263.915,0.814L263.95,0.846C320.183,0.865 376.417,0.877 432.65,0.943C434.057,0.944 435.628,0.116 436.865,1.874C437.411,1.45 437.518,0.73 437.528,-0.056L263.884,-0.056C263.929,0.231 263.94,0.521 263.915,0.814Z" style="fill:rgb(42,42,42);fill-rule:nonzero;"/>
        </g>
        <g transform="matrix(4.16667,0,0,4.16667,0,0)">
            <path d="M87.327,0.888L87.514,0.888C87.527,0.573 87.523,0.258 87.505,-0.056C59.248,-0.056 30.991,-0.069 2.734,0.002C1.848,0.004 0.615,-1.08 0,0.903C29.109,0.898 58.218,0.893 87.327,0.888Z" style="fill:rgb(129,129,129);fill-rule:nonzero;"/>
        </g>
        <g transform="matrix(4.16667,0,0,4.16667,0,0)">
            <path d="M613.988,0.818C613.995,0.885 614.001,0.951 614.007,1.017C643.142,0.979 672.277,0.941 701.412,0.903C700.797,-1.08 699.564,0.004 698.677,0.002C670.42,-0.069 642.163,-0.056 613.906,-0.056C613.934,0.235 613.961,0.527 613.988,0.818Z" style="fill:rgb(129,129,129);fill-rule:nonzero;"/>
        </g>
        <g transform="matrix(4.16667,0,0,4.16667,0,0)">
            <path d="M442.04,0.873C446.781,0.942 451.524,0.967 456.264,0.86C457.543,0.832 458.993,1.671 460.088,-0.056L438.895,-0.056C439.751,1.504 440.975,0.857 442.04,0.873Z" style="fill:rgb(255,192,0);fill-rule:nonzero;"/>
        </g>
        <g transform="matrix(4.16667,0,0,4.16667,0,0)">
            <path d="M263.3,247.433C263.254,247.432 263.2,247.431 263.2,247.431C261.368,247.1 260.657,249.288 259.665,250.676C232.676,288.489 205.711,326.337 178.749,364.188C177.87,365.422 177.055,366.746 176.211,368.029C177.406,369.915 178.994,369.056 180.392,369.057C235.613,369.105 290.833,369.113 346.053,369.014C347.555,369.011 349.237,370.365 350.651,368.466C349.644,367.197 348.591,365.991 347.635,364.651C319.962,325.884 292.299,287.104 264.634,248.326C264.31,248.101 263.99,247.877 263.671,247.653C263.568,247.58 263.461,247.507 263.358,247.434C263.362,247.434 263.333,247.433 263.3,247.433Z" style="fill:rgb(128,64,0);fill-rule:nonzero;"/>
        </g>
        <g transform="matrix(4.16667,0,0,4.16667,0,0)">
            <path d="M695.438,123.808C640.663,123.77 585.888,123.775 531.113,123.775C530.43,123.775 529.741,123.703 529.065,123.799C528.537,123.874 527.781,123.927 527.552,124.397C527.052,125.427 527.878,126.053 528.293,126.728C528.738,127.453 529.246,128.1 529.729,128.778C556.704,166.63 583.678,204.483 610.661,242.324C611.461,243.446 612.354,244.437 613.204,245.49C614.041,244.427 614.912,243.413 615.709,242.295C642.751,204.364 669.787,166.424 696.818,128.477C697.697,127.244 698.51,125.92 699.354,124.639C698.188,123.114 696.747,123.809 695.438,123.808Z" style="fill:rgb(128,64,0);fill-rule:nonzero;"/>
        </g>
        <g transform="matrix(4.16667,0,0,4.16667,0,0)">
            <path d="M345.416,614.948C290.641,614.91 235.866,614.915 181.091,614.915C180.408,614.915 179.719,614.843 179.043,614.939C178.514,615.014 177.759,615.067 177.53,615.537C177.03,616.567 177.856,617.193 178.271,617.868C178.716,618.592 179.224,619.24 179.707,619.918C206.682,657.77 233.656,695.623 260.639,733.463C261.439,734.585 262.332,735.577 263.182,736.63C264.018,735.567 264.89,734.553 265.687,733.435C292.729,695.504 319.765,657.564 346.796,619.617C347.675,618.384 348.489,617.06 349.333,615.779C348.166,614.254 346.725,614.949 345.416,614.948Z" style="fill:rgb(128,64,0);fill-rule:nonzero;"/>
        </g>
        <g transform="matrix(4.16667,0,0,4.16667,0,0)">
            <path d="M262.533,491.038C263.898,491.118 264.463,489.501 265.233,488.422C292.619,450.036 319.99,411.63 347.342,373.198C347.92,372.386 348.951,371.86 348.743,370.16C348.278,370.11 347.831,370.021 347.384,370.021C291.484,370.014 235.585,370.009 179.685,370.058C178.809,370.059 177.574,369.142 177.074,371.172C205.56,411.128 234.046,451.083 262.533,491.038Z" style="fill:rgb(255,128,0);fill-rule:nonzero;"/>
        </g>
        <g transform="matrix(4.16667,0,0,4.16667,0,0)">
            <path d="M347.635,364.651C348.591,365.991 349.644,367.197 350.651,368.466C379.002,328.736 407.352,289.007 435.699,249.273C436.006,248.843 436.386,248.401 436.062,247.552C435.664,247.515 435.22,247.438 434.776,247.438C378.998,247.432 323.22,247.428 267.442,247.464C266.5,247.465 265.368,246.782 264.634,248.326C292.299,287.104 319.962,325.884 347.635,364.651Z" style="fill:rgb(224,128,0);fill-rule:nonzero;"/>
        </g>
        <g transform="matrix(4.16667,0,0,4.16667,0,0)">
            <path d="M350.645,613.964C351.002,613.57 351.393,613.222 351.712,612.774C379.583,573.681 407.449,534.583 435.302,495.467C435.729,494.869 436.522,494.395 436.082,493.133C435.749,493.087 435.411,493 435.073,493C379.378,492.993 323.683,492.99 267.989,493.015C267.029,493.016 265.898,492.461 265.198,494.029C293.68,534.007 322.163,573.985 350.645,613.964Z" style="fill:rgb(255,128,0);fill-rule:nonzero;"/>
        </g>
        <g transform="matrix(4.16667,0,0,4.16667,0,0)">
            <path d="M433.234,737.933C378.222,737.895 323.211,737.899 268.199,737.899L264.801,737.899C265.032,740.345 266.256,741.172 267.082,742.333C287.194,770.615 307.325,798.871 327.472,827.105C335.203,837.941 342.981,848.713 350.738,859.514C368.284,834.922 385.843,810.346 403.374,785.732C414.549,770.043 425.684,754.298 436.837,738.577C435.738,737.281 434.431,737.934 433.234,737.933Z" style="fill:rgb(128,64,0);fill-rule:nonzero;"/>
        </g>
        <g transform="matrix(4.16667,0,0,4.16667,0,0)">
            <path d="M695.366,369.994C640.274,369.946 585.182,369.949 530.089,369.977C529.274,369.977 528.31,369.478 527.477,370.829C528.39,372.168 529.224,373.439 530.094,374.659C551.179,404.254 572.261,433.852 593.359,463.427C599.96,472.681 606.606,481.871 613.231,491.091C641.726,451.133 670.222,411.174 698.718,371.216C697.927,369.093 696.5,369.995 695.366,369.994Z" style="fill:rgb(255,192,0);fill-rule:nonzero;"/>
        </g>
        <g transform="matrix(4.16667,0,0,4.16667,0,0)">
            <path d="M348.695,862.356C347.905,860.233 346.478,861.135 345.345,861.134C290.254,861.085 235.163,861.089 180.073,861.116C179.256,861.117 178.295,860.625 177.45,861.959C178.368,863.306 179.2,864.575 180.068,865.793C201.635,896.064 223.2,926.339 244.779,956.591C250.35,964.401 255.958,972.157 261.555,979.93L264.835,979.93C292.789,940.739 320.742,901.548 348.695,862.356Z" style="fill:rgb(255,192,0);fill-rule:nonzero;"/>
        </g>
        <g transform="matrix(4.16667,0,0,4.16667,0,0)">
            <path d="M696.724,619.536C697.603,618.301 698.419,616.977 699.264,615.694C642.443,615.669 585.622,615.644 528.801,615.637C528.404,615.637 527.847,615.42 527.662,616.62C528.26,617.533 528.909,618.6 529.614,619.59C556.745,657.672 583.88,695.748 611.022,733.816C611.743,734.826 612.543,735.725 613.306,736.676C641.113,697.631 668.921,658.588 696.724,619.536Z" style="fill:rgb(224,128,0);fill-rule:nonzero;"/>
        </g>
        <g transform="matrix(4.16667,0,0,4.16667,0,0)">
            <path d="M352.562,119.839C380.06,81.24 407.563,42.649 435.072,4.065C435.631,3.28 436.266,2.602 436.865,1.874C435.628,0.116 434.057,0.944 432.65,0.943C376.417,0.877 320.183,0.865 263.95,0.846C292.879,41.456 321.808,82.066 350.737,122.676C351.344,121.728 351.921,120.739 352.562,119.839Z" style="fill:rgb(255,192,0);fill-rule:nonzero;"/>
        </g>
        <g transform="matrix(4.16667,0,0,4.16667,0,0)">
            <path d="M346.701,128.396C347.581,127.161 348.397,125.837 349.242,124.554C292.421,124.53 235.6,124.504 178.779,124.497C178.382,124.497 177.825,124.28 177.64,125.474C178.156,126.273 178.724,127.232 179.35,128.11C206.723,166.532 234.099,204.947 261.483,243.354C262.042,244.139 262.682,244.811 263.284,245.535C291.091,206.491 318.899,167.448 346.701,128.396Z" style="fill:rgb(224,128,0);fill-rule:nonzero;"/>
        </g>
        <g transform="matrix(4.16667,0,0,4.16667,0,0)">
            <path d="M697.366,864.334C697.944,863.524 698.977,862.998 698.764,861.298C698.299,861.249 697.851,861.16 697.403,861.16C641.505,861.154 585.606,861.148 529.708,861.198C528.832,861.199 527.597,860.283 527.095,862.311C555.051,901.518 583.006,940.724 610.961,979.93L615.012,979.93C615.093,979.802 615.175,979.675 615.259,979.556C642.644,941.171 670.015,902.766 697.366,864.334Z" style="fill:rgb(255,128,0);fill-rule:nonzero;"/>
        </g>
        <g transform="matrix(4.16667,0,0,4.16667,0,0)">
            <path d="M1315.42,1.017C1315.41,0.951 1315.41,0.885 1315.4,0.818C1315.38,0.857 1315.36,0.896 1315.35,0.935L1315.42,1.017Z" style="fill:rgb(224,128,0);fill-rule:nonzero;"/>
        </g>
        <g transform="matrix(4.16667,0,0,4.16667,0,0)">
            <path d="M1315.35,0.935C1313.56,0.805 1312.84,2.938 1311.84,4.338C1283.64,43.894 1255.46,83.465 1227.35,123.142C1226.01,125.046 1224.67,124.515 1223.3,124.517C1168.16,124.566 1113.03,124.559 1057.89,124.559L1053.86,124.559C1053.8,124.692 1053.75,124.831 1053.7,124.987C1053.66,125.117 1053.64,125.243 1053.62,125.368C1082.68,166.147 1111.13,206.073 1139.92,246.473C1082.66,246.473 1026,246.466 969.348,246.508C967.919,246.509 966.376,245.888 965.05,247.149C965.044,247.336 965.061,247.498 965.083,247.653C965.402,247.877 965.722,248.101 966.046,248.326C993.71,287.104 1021.37,325.884 1049.05,364.651C1050,365.991 1051.06,367.197 1052.06,368.466C1050.65,370.365 1048.97,369.011 1047.47,369.014C992.245,369.113 937.024,369.105 881.804,369.057C880.406,369.056 878.818,369.915 877.622,368.029C876.592,370.24 874.982,369.433 873.592,369.433C818.107,369.466 762.622,369.461 707.137,369.464C706.113,369.464 705.05,369.284 704.076,369.608C703.35,369.849 703.441,370.703 704.143,371.192C705.193,369.721 706.521,370.411 707.71,370.411C763.188,370.372 818.665,370.377 874.142,370.38C875.613,370.38 877.11,370.136 878.486,371.172C878.986,369.142 880.221,370.059 881.097,370.058C936.997,370.009 992.896,370.014 1048.8,370.021C1049.24,370.021 1049.69,370.11 1050.15,370.16C1050.36,371.86 1049.33,372.386 1048.75,373.198C1021.4,411.63 994.031,450.036 966.645,488.422C965.875,489.501 965.309,491.118 963.945,491.038C964.047,491.748 964.332,492.293 963.757,493.097C935.675,532.314 907.577,571.512 879.646,610.941C877.079,614.565 874.666,615.814 871.137,615.805C816.708,615.652 762.278,615.698 707.849,615.698L703.923,615.698C732.724,656.111 761.363,696.295 790.001,736.479C789.768,736.857 789.534,737.235 789.301,737.612L701.412,737.612L701.412,738.572L787.363,738.572C787.939,739.962 787.084,740.402 786.677,740.974C758.532,780.501 730.372,820.006 702.21,859.508C701.971,859.843 701.679,860.103 701.412,860.397L701.129,860.215L700.819,860.25L700.741,860.25C698.875,860.246 697.01,860.238 695.145,860.238C640.235,860.237 585.325,860.245 530.416,860.197C529.018,860.195 527.427,861.062 526.236,859.16C525.209,861.377 523.599,860.573 522.209,860.573C466.724,860.606 411.239,860.601 355.755,860.604C354.73,860.604 353.668,860.426 352.693,860.746C351.97,860.983 352.046,861.836 352.752,862.33C353.803,860.863 355.13,861.551 356.321,861.55C411.798,861.512 467.275,861.516 522.752,861.52C524.222,861.52 525.719,861.276 527.095,862.311C527.597,860.283 528.832,861.199 529.708,861.198C585.606,861.148 641.505,861.154 697.403,861.16C697.851,861.16 698.299,861.249 698.764,861.298C698.977,862.998 697.944,863.524 697.366,864.334C670.015,902.766 642.644,941.171 615.259,979.556C615.175,979.675 615.093,979.802 615.012,979.93L787.58,979.93C786.71,978.603 785.862,977.243 784.954,975.968C758.784,939.232 732.615,902.498 706.409,865.814C705.457,864.481 704.141,863.659 702.842,862.458C704.954,859.966 706.368,860.702 707.643,860.701C762.542,860.656 817.44,860.635 872.338,860.739C875.167,860.745 877.185,859.699 879.218,856.832C906.854,817.862 934.582,779.02 962.282,740.138C963.084,739.012 963.824,737.801 964.593,736.63C963.744,735.577 962.851,734.585 962.051,733.463C935.068,695.623 908.094,657.77 881.119,619.918C880.636,619.24 880.127,618.592 879.682,617.868C879.268,617.193 878.442,616.567 878.942,615.537C879.17,615.067 879.926,615.014 880.455,614.939C881.131,614.843 881.819,614.915 882.502,614.915C937.278,614.915 992.053,614.91 1046.83,614.948C1048.14,614.949 1049.58,614.254 1050.74,615.779C1051.18,615.174 1051.62,614.569 1052.06,613.964C1023.57,573.985 995.092,534.007 966.609,494.029C965.846,493.254 965.783,492.421 966.779,492.164C967.773,491.907 968.82,492.036 969.844,492.036C1025.22,492.032 1080.59,492.033 1135.96,492.033L1138.98,492.033C1110.28,451.759 1081.68,411.638 1052.88,371.216C1054.94,368.921 1056.33,369.556 1057.57,369.556C1112.49,369.517 1167.4,369.489 1222.32,369.613C1225.32,369.62 1227.37,368.314 1229.45,365.382C1256.94,326.637 1284.51,288.006 1312.06,249.339C1312.94,248.099 1313.77,246.775 1314.62,245.49C1313.77,244.437 1312.87,243.446 1312.07,242.324C1285.09,204.483 1258.12,166.63 1231.14,128.778C1230.66,128.1 1230.15,127.453 1229.7,126.728C1229.29,126.053 1228.46,125.427 1228.96,124.397C1229.19,123.927 1229.95,123.874 1230.48,123.799C1231.15,123.703 1231.84,123.775 1232.52,123.775C1287.3,123.775 1342.07,123.77 1396.85,123.808C1397.89,123.809 1399,123.391 1400,123.964L1400,119.964C1372.55,81.448 1345.1,42.933 1317.66,4.412C1316.86,3.291 1316.12,2.096 1315.35,0.935Z" style="fill:rgb(224,128,0);fill-rule:nonzero;"/>
        </g>
        <g transform="matrix(4.16667,0,0,4.16667,0,0)">
            <path d="M1317.12,242.295C1316.32,243.413 1315.45,244.427 1314.62,245.49C1313.77,246.775 1312.94,248.099 1312.06,249.339C1284.51,288.006 1256.94,326.637 1229.45,365.382C1227.37,368.314 1225.32,369.62 1222.32,369.613C1167.4,369.489 1112.49,369.517 1057.57,369.556C1056.33,369.556 1054.94,368.921 1052.88,371.216C1081.68,411.638 1110.28,451.759 1138.98,492.033L1135.96,492.033C1080.59,492.033 1025.22,492.032 969.844,492.036C968.82,492.036 967.773,491.907 966.779,492.164C965.783,492.421 965.846,493.254 966.609,494.029C967.309,492.461 968.441,493.016 969.401,493.015C1025.1,492.99 1080.79,492.993 1136.48,493C1136.82,493 1137.16,493.087 1137.49,493.133C1137.93,494.395 1137.14,494.869 1136.71,495.467C1108.86,534.583 1080.99,573.681 1053.12,612.774C1052.8,613.222 1052.41,613.57 1052.06,613.964C1051.62,614.569 1051.18,615.174 1050.74,615.779C1049.9,617.06 1049.09,618.384 1048.21,619.617C1021.18,657.564 994.141,695.504 967.099,733.435C966.301,734.553 965.43,735.567 964.593,736.63C963.824,737.801 963.084,739.012 962.282,740.138C934.582,779.02 906.854,817.862 879.218,856.832C877.185,859.699 875.167,860.745 872.338,860.739C817.44,860.635 762.542,860.656 707.643,860.701C706.368,860.702 704.954,859.966 702.842,862.458C704.141,863.659 705.457,864.481 706.409,865.814C732.615,902.498 758.784,939.232 784.954,975.968C785.862,977.243 786.71,978.603 787.58,979.93L962.966,979.93C957.37,972.157 951.762,964.401 946.191,956.591C924.611,926.339 903.047,896.064 881.48,865.793C880.612,864.575 879.78,863.306 878.862,861.959C879.707,860.625 880.668,861.117 881.484,861.116C936.575,861.089 991.666,861.085 1046.76,861.134C1047.89,861.135 1049.32,860.233 1050.11,862.356C1051,861.709 1051.78,860.896 1052.15,859.514L1052.15,859.513L1052.15,859.514C1044.39,848.713 1036.62,837.941 1028.88,827.105C1008.74,798.871 988.606,770.615 968.494,742.333C967.668,741.172 966.444,740.345 966.213,737.899L969.611,737.899C1024.62,737.899 1079.63,737.895 1134.65,737.933C1135.84,737.934 1137.15,737.281 1138.25,738.577C1138.99,738.12 1139.91,737.712 1139.05,736.247C1138.47,735.264 1137.79,734.408 1137.14,733.505C1110.25,695.769 1083.36,658.027 1056.44,620.333C1055.49,618.997 1054.19,618.146 1052.85,616.881C1054.88,614.346 1056.28,615.029 1057.52,615.029C1112.4,614.988 1167.29,614.958 1222.17,615.085C1225.24,615.092 1227.37,613.965 1229.57,610.867C1257.77,571.139 1286.09,531.566 1314.37,491.943C1314.51,491.736 1314.55,491.378 1314.64,491.091L1314.64,491.09L1314.64,491.091C1308.02,481.871 1301.37,472.681 1294.77,463.427C1273.67,433.852 1252.59,404.254 1231.51,374.659C1230.64,373.439 1229.8,372.168 1228.89,370.829C1229.72,369.478 1230.69,369.977 1231.5,369.977C1286.59,369.949 1341.69,369.946 1396.78,369.994C1397.85,369.995 1399.19,369.189 1400,370.914L1400,365.631C1399.92,365.513 1399.85,365.385 1399.76,365.269C1372.72,327.292 1345.66,289.332 1318.61,251.345C1317.76,250.143 1316.64,249.205 1316.22,247.342C1317.37,246.194 1318.65,246.794 1319.83,246.792C1346.13,246.75 1372.44,246.764 1398.75,246.747C1399.16,246.747 1399.58,246.727 1400,246.701L1400,125.822C1399.42,126.721 1398.84,127.621 1398.23,128.477C1371.2,166.424 1344.16,204.364 1317.12,242.295Z" style="fill:rgb(192,128,0);fill-rule:nonzero;"/>
        </g>
        <g transform="matrix(4.16667,0,0,4.16667,0,0)">
            <path d="M1314.63,738.571" style="fill:rgb(255,128,0);fill-rule:nonzero;"/>
        </g>
        <g transform="matrix(4.16667,0,0,4.16667,0,0)">
            <path d="M1314.64,491.09L1314.64,491.091C1314.55,491.378 1314.51,491.736 1314.37,491.943C1286.09,531.566 1257.77,571.139 1229.57,610.867C1227.37,613.965 1225.24,615.092 1222.17,615.085C1167.29,614.958 1112.4,614.988 1057.52,615.029C1056.28,615.029 1054.88,614.346 1052.85,616.881C1054.19,618.146 1055.49,618.997 1056.44,620.333C1083.36,658.027 1110.25,695.769 1137.14,733.505C1137.79,734.408 1138.47,735.264 1139.05,736.247C1139.91,737.712 1138.99,738.12 1138.25,738.577C1127.1,754.298 1115.96,770.043 1104.79,785.732C1087.25,810.346 1069.7,834.922 1052.15,859.513L1052.15,859.514C1051.78,860.896 1051,861.709 1050.11,862.356C1022.15,901.548 994.2,940.739 966.247,979.93L1137.88,979.93C1109.97,940.73 1082.07,901.53 1054.16,862.33C1053.46,861.836 1053.38,860.983 1054.1,860.746C1055.08,860.426 1056.14,860.604 1057.17,860.604C1112.65,860.601 1168.14,860.606 1223.62,860.573C1225.01,860.573 1226.62,861.377 1227.65,859.16C1228.98,857.199 1230.27,855.197 1231.63,853.285C1258.11,816.114 1284.59,778.947 1311.1,741.816C1312.09,740.429 1312.8,738.239 1314.63,738.571C1314.66,737.939 1314.69,737.307 1314.72,736.676L1314.72,736.675L1314.72,736.676C1313.95,735.725 1313.15,734.826 1312.43,733.816C1285.29,695.748 1258.16,657.672 1231.03,619.59C1230.32,618.6 1229.67,617.533 1229.07,616.62C1229.26,615.42 1229.82,615.637 1230.21,615.637C1286.81,615.644 1343.4,615.669 1400,615.694L1400,610.948C1399.95,610.882 1399.91,610.816 1399.86,610.75C1372.88,572.893 1345.91,535.028 1318.9,497.211C1318.04,496.015 1316.84,495.308 1315.91,494.22C1317.1,492.265 1317.84,492.685 1318.46,492.684C1345.64,492.661 1372.82,492.664 1400,492.681L1400,371.398C1371.55,411.295 1343.1,451.193 1314.64,491.09Z" style="fill:rgb(255,128,0);fill-rule:nonzero;"/>
        </g>
        <g transform="matrix(4.16667,0,0,4.16667,0,0)">
            <path d="M964.712,247.433L964.612,247.431C964.612,247.431 964.666,247.432 964.711,247.433L964.712,247.433Z" style="fill:rgb(255,128,0);fill-rule:nonzero;"/>
        </g>
        <g transform="matrix(4.16667,0,0,4.16667,0,0)">
            <path d="M613.222,738.571M706.004,373.971C733.311,412.299 760.623,450.62 787.926,488.953C789,490.46 791.233,492.297 787.566,493.039C786.926,494.138 786.348,495.324 785.637,496.323C758.357,534.631 731.066,572.924 703.767,611.205C703.056,612.202 702.481,613.477 701.412,613.868L701.412,615.787C700.896,615.723 700.38,615.66 699.863,615.597L699.864,615.597L699.863,615.597C699.659,615.575 699.459,615.608 699.264,615.694C698.419,616.977 697.603,618.301 696.724,619.536C668.921,658.588 641.113,697.631 613.306,736.676C613.278,737.307 613.25,737.939 613.222,738.571C611.391,738.239 610.679,740.429 609.688,741.816C583.182,778.947 556.701,816.114 530.223,853.285C528.861,855.197 527.563,857.199 526.236,859.16C527.427,861.062 529.018,860.195 530.416,860.197C585.325,860.245 640.235,860.237 695.145,860.238C697.01,860.238 698.875,860.246 700.741,860.25C700.746,860.218 700.747,860.188 700.752,860.157C672.046,819.895 643.339,779.632 614.693,739.454C615.002,737.838 615.823,738.31 616.417,738.309C644.301,738.286 672.185,738.289 700.069,738.304C700.517,738.304 700.964,738.479 701.412,738.572L701.412,737.612L789.301,737.612C789.534,737.235 789.768,736.857 790.001,736.479C761.363,696.295 732.724,656.111 703.923,615.698L707.849,615.698C762.278,615.698 816.708,615.652 871.137,615.805C874.666,615.814 877.079,614.565 879.646,610.941C907.577,571.512 935.675,532.314 963.757,493.097C964.332,492.293 964.047,491.748 963.945,491.038C935.458,451.083 906.972,411.128 878.486,371.172C877.11,370.136 875.613,370.38 874.142,370.38C818.665,370.377 763.188,370.372 707.71,370.411C706.521,370.411 705.193,369.721 704.143,371.192C704.762,372.12 705.364,373.073 706.004,373.971Z" style="fill:rgb(128,64,0);fill-rule:nonzero;"/>
        </g>
        <g transform="matrix(4.16667,0,0,4.16667,0,0)">
            <path d="M1138.28,1.874C1137.68,2.602 1137.04,3.28 1136.48,4.065C1108.98,42.649 1081.47,81.24 1053.97,119.839C1053.33,120.739 1052.76,121.728 1052.15,122.676C1052.39,124.467 1051.59,124.614 1050.65,124.554C1049.81,125.837 1048.99,127.161 1048.11,128.396C1020.31,167.448 992.503,206.491 964.695,245.535C964.667,246.167 964.639,246.799 964.612,247.431L964.712,247.433L964.759,247.433C964.853,247.319 964.953,247.242 965.05,247.149C966.376,245.888 967.919,246.509 969.348,246.508C1026,246.466 1082.66,246.473 1139.92,246.473C1111.13,206.073 1082.68,166.147 1053.62,125.368C1053.42,125.098 1053.23,124.829 1053.04,124.559L1057.89,124.559C1113.03,124.559 1168.16,124.566 1223.3,124.517C1224.67,124.515 1226.01,125.046 1227.35,123.142C1255.46,83.465 1283.64,43.894 1311.84,4.338C1312.84,2.938 1313.56,0.805 1315.35,0.935C1315.36,0.896 1315.38,0.857 1315.4,0.818C1315.37,0.527 1315.35,0.235 1315.32,-0.056L1161.5,-0.056C1160.4,1.671 1158.95,0.832 1157.68,0.86C1152.94,0.967 1148.19,0.942 1143.45,0.873C1142.39,0.857 1141.16,1.504 1140.31,-0.056L1138.94,-0.056C1138.93,0.73 1138.82,1.45 1138.28,1.874Z" style="fill:rgb(128,64,0);fill-rule:nonzero;"/>
        </g>
        <g transform="matrix(4.16667,0,0,4.16667,0,0)">
            <path d="M788.926,0.888L788.739,0.888C788.781,0.925 788.824,0.962 788.866,0.999L788.926,0.888Z" style="fill:rgb(192,128,0);fill-rule:nonzero;"/>
        </g>
        <g transform="matrix(4.16667,0,0,4.16667,0,0)">
            <path d="M1224.16,861.52C1168.69,861.516 1113.21,861.512 1057.73,861.55C1056.54,861.551 1055.22,860.863 1054.16,862.33C1082.07,901.53 1109.97,940.73 1137.88,979.93L1312.37,979.93C1284.42,940.724 1256.46,901.518 1228.51,862.311C1227.13,861.276 1225.63,861.52 1224.16,861.52Z" style="fill:rgb(128,64,0);fill-rule:nonzero;"/>
        </g>
        <g transform="matrix(4.16667,0,0,4.16667,0,0)">
            <path d="M1316.67,979.556C1316.59,979.675 1316.5,979.802 1316.42,979.93L1400,979.93L1400,862.734C1399.7,863.407 1399.15,863.814 1398.78,864.334C1371.43,902.766 1344.06,941.171 1316.67,979.556Z" style="fill:rgb(224,128,0);fill-rule:nonzero;"/>
        </g>
        <g transform="matrix(4.16667,0,0,4.16667,0,0)">
            <path d="M1231.83,860.197C1230.43,860.195 1228.84,861.062 1227.65,859.16C1226.62,861.377 1225.01,860.573 1223.62,860.573C1168.14,860.606 1112.65,860.601 1057.17,860.604C1056.14,860.604 1055.08,860.426 1054.1,860.746C1053.38,860.983 1053.46,861.836 1054.16,862.33C1055.22,860.863 1056.54,861.551 1057.73,861.55C1113.21,861.512 1168.69,861.516 1224.16,861.52C1225.63,861.52 1227.13,861.276 1228.51,862.311C1229.01,860.283 1230.24,861.199 1231.12,861.198C1287.02,861.148 1342.92,861.154 1398.82,861.16C1399.21,861.16 1399.6,861.226 1400,861.276L1400,860.245C1398.85,860.242 1397.7,860.238 1396.56,860.238C1341.65,860.237 1286.74,860.245 1231.83,860.197Z" style="fill:rgb(224,128,0);fill-rule:nonzero;"/>
        </g>
        <g transform="matrix(4.16667,0,0,4.16667,0,0)">
            <path d="M1314.63,738.571M1398.14,619.536C1370.33,658.588 1342.53,697.631 1314.72,736.675L1314.72,736.676C1314.69,737.307 1314.66,737.939 1314.63,738.571C1312.8,738.239 1312.09,740.429 1311.1,741.816C1284.59,778.947 1258.11,816.114 1231.63,853.285C1230.27,855.197 1228.98,857.199 1227.65,859.16C1228.84,861.062 1230.43,860.195 1231.83,860.197C1286.74,860.245 1341.65,860.237 1396.56,860.238C1397.7,860.238 1398.85,860.242 1400,860.245L1400,857.122C1372.02,817.872 1344.03,778.623 1316.1,739.454C1316.41,737.838 1317.23,738.31 1317.83,738.309C1345.22,738.286 1372.61,738.29 1400,738.304L1400,616.736C1399.39,617.684 1398.78,618.633 1398.14,619.536Z" style="fill:rgb(128,64,0);fill-rule:nonzero;"/>
        </g>
        <g transform="matrix(4.16667,0,0,4.16667,0,0)">
            <path d="M1315.42,1.017L1315.35,0.935C1316.12,2.096 1316.86,3.291 1317.66,4.412C1345.1,42.933 1372.55,81.448 1400,119.964L1400,0.907C1371.81,0.944 1343.61,0.98 1315.42,1.017Z" style="fill:rgb(255,128,0);fill-rule:nonzero;"/>
        </g>
        <g transform="matrix(4.16667,0,0,4.16667,0,0)">
            <path d="M1319.83,246.792C1318.65,246.794 1317.37,246.194 1316.22,247.342C1316.64,249.205 1317.76,250.143 1318.61,251.345C1345.66,289.332 1372.72,327.292 1399.76,365.269C1399.85,365.385 1399.92,365.513 1400,365.631L1400,246.701C1399.58,246.727 1399.16,246.747 1398.75,246.747C1372.44,246.764 1346.13,246.75 1319.83,246.792Z" style="fill:rgb(128,64,0);fill-rule:nonzero;"/>
        </g>
        <g transform="matrix(4.16667,0,0,4.16667,0,0)">
            <path d="M784.629,246.794C758.247,246.749 731.865,246.764 705.483,246.747C704.125,246.746 702.769,246.568 701.412,246.473C700.053,246.568 698.694,246.746 697.335,246.747C671.029,246.764 644.722,246.75 618.416,246.792C617.236,246.794 615.957,246.194 614.804,247.342C615.226,249.205 616.347,250.143 617.203,251.345C644.244,289.332 671.304,327.292 698.352,365.269C699.225,366.496 700,367.861 700.82,369.162L700.821,369.162L701.111,369.267L701.412,369.258C719.686,343.686 737.973,318.133 756.228,292.535C766.921,277.54 777.562,262.472 788.226,247.437C787.129,246.143 785.824,246.796 784.629,246.794Z" style="fill:rgb(128,64,0);fill-rule:nonzero;"/>
        </g>
        <g transform="matrix(4.16667,0,0,4.16667,0,0)">
            <path d="M1315.91,494.22C1316.84,495.308 1318.04,496.015 1318.9,497.211C1345.91,535.028 1372.88,572.893 1399.86,610.75C1399.91,610.816 1399.95,610.882 1400,610.948L1400,492.681C1372.82,492.664 1345.64,492.661 1318.46,492.684C1317.84,492.685 1317.1,492.265 1315.91,494.22Z" style="fill:rgb(224,128,0);fill-rule:nonzero;"/>
        </g>
        <g transform="matrix(4.16667,0,0,4.16667,0,0)">
            <path d="M1316.1,739.454C1344.03,778.623 1372.02,817.872 1400,857.122L1400,738.304C1372.61,738.29 1345.22,738.286 1317.83,738.309C1317.23,738.31 1316.41,737.838 1316.1,739.454Z" style="fill:rgb(192,128,0);fill-rule:nonzero;"/>
        </g>
        <g transform="matrix(4.16667,0,0,4.16667,0,0)">
            <path d="M788.926,0.888L788.866,0.999C847.227,0.979 905.588,0.96 963.949,0.941C964.408,0.899 964.867,0.856 965.327,0.814C965.351,0.521 965.341,0.231 965.296,-0.056L788.917,-0.056C788.936,0.258 788.939,0.573 788.926,0.888Z" style="fill:rgb(85,85,85);fill-rule:nonzero;"/>
        </g>
        <g transform="matrix(4.16667,0,0,4.16667,0,0)">
            <path d="M965.327,0.814L965.362,0.846C1021.6,0.865 1077.83,0.877 1134.06,0.943C1135.47,0.944 1137.04,0.116 1138.28,1.874C1138.82,1.45 1138.93,0.73 1138.94,-0.056L965.296,-0.056C965.341,0.231 965.351,0.521 965.327,0.814Z" style="fill:rgb(42,42,42);fill-rule:nonzero;"/>
        </g>
        <g transform="matrix(4.16667,0,0,4.16667,0,0)">
            <path d="M788.739,0.888L788.926,0.888C788.939,0.573 788.936,0.258 788.917,-0.056C760.66,-0.056 732.403,-0.069 704.146,0.002C703.26,0.004 702.027,-1.08 701.412,0.903C730.521,0.898 759.63,0.893 788.739,0.888Z" style="fill:rgb(129,129,129);fill-rule:nonzero;"/>
        </g>
        <g transform="matrix(4.16667,0,0,4.16667,0,0)">
            <path d="M1400,0.002C1371.77,-0.069 1343.55,-0.056 1315.32,-0.056C1315.35,0.235 1315.37,0.527 1315.4,0.818C1315.41,0.885 1315.41,0.951 1315.42,1.017C1343.61,0.98 1371.81,0.944 1400,0.907L1400,0.002Z" style="fill:rgb(129,129,129);fill-rule:nonzero;"/>
        </g>
        <g transform="matrix(4.16667,0,0,4.16667,0,0)">
            <path d="M1143.45,0.873C1148.19,0.942 1152.94,0.967 1157.68,0.86C1158.95,0.832 1160.4,1.671 1161.5,-0.056L1140.31,-0.056C1141.16,1.504 1142.39,0.857 1143.45,0.873Z" style="fill:rgb(255,192,0);fill-rule:nonzero;"/>
        </g>
        <g transform="matrix(4.16667,0,0,4.16667,0,0)">
            <path d="M964.711,247.433C964.666,247.432 964.612,247.431 964.612,247.431C962.781,247.1 962.068,249.288 961.078,250.676C934.088,288.489 907.123,326.337 880.16,364.188C879.281,365.422 878.467,366.746 877.622,368.029C878.818,369.915 880.406,369.056 881.804,369.057C937.024,369.105 992.245,369.113 1047.47,369.014C1048.97,369.011 1050.65,370.365 1052.06,368.466C1051.06,367.197 1050,365.991 1049.05,364.651C1021.37,325.884 993.71,287.104 966.046,248.326C965.722,248.101 965.402,247.877 965.083,247.653C964.979,247.58 964.873,247.507 964.77,247.434C964.774,247.434 964.745,247.433 964.711,247.433Z" style="fill:rgb(128,64,0);fill-rule:nonzero;"/>
        </g>
        <g transform="matrix(4.16667,0,0,4.16667,0,0)">
            <path d="M1396.85,123.808C1342.07,123.77 1287.3,123.775 1232.52,123.775C1231.84,123.775 1231.15,123.703 1230.48,123.799C1229.95,123.874 1229.19,123.927 1228.96,124.397C1228.46,125.427 1229.29,126.053 1229.7,126.728C1230.15,127.453 1230.66,128.1 1231.14,128.778C1258.12,166.63 1285.09,204.483 1312.07,242.324C1312.87,243.446 1313.77,244.437 1314.62,245.49C1315.45,244.427 1316.32,243.413 1317.12,242.295C1344.16,204.364 1371.2,166.424 1398.23,128.477C1398.84,127.621 1399.42,126.721 1400,125.822L1400,123.964C1399,123.391 1397.89,123.809 1396.85,123.808Z" style="fill:rgb(128,64,0);fill-rule:nonzero;"/>
        </g>
        <g transform="matrix(4.16667,0,0,4.16667,0,0)">
            <path d="M967.099,733.435C994.141,695.504 1021.18,657.564 1048.21,619.617C1049.09,618.384 1049.9,617.06 1050.74,615.779C1049.58,614.254 1048.14,614.949 1046.83,614.948C992.053,614.91 937.278,614.915 882.502,614.915C881.819,614.915 881.131,614.843 880.455,614.939C879.926,615.014 879.17,615.067 878.942,615.537C878.442,616.567 879.268,617.193 879.682,617.868C880.127,618.592 880.636,619.24 881.119,619.918C908.094,657.77 935.068,695.623 962.051,733.463C962.851,734.585 963.744,735.577 964.593,736.63C965.43,735.567 966.301,734.553 967.099,733.435Z" style="fill:rgb(128,64,0);fill-rule:nonzero;"/>
        </g>
        <g transform="matrix(4.16667,0,0,4.16667,0,0)">
            <path d="M963.945,491.038C965.309,491.118 965.875,489.501 966.645,488.422C994.031,450.036 1021.4,411.63 1048.75,373.198C1049.33,372.386 1050.36,371.86 1050.15,370.16C1049.69,370.11 1049.24,370.021 1048.8,370.021C992.896,370.014 936.997,370.009 881.097,370.058C880.221,370.059 878.986,369.142 878.486,371.172C906.972,411.128 935.458,451.083 963.945,491.038Z" style="fill:rgb(255,128,0);fill-rule:nonzero;"/>
        </g>
        <g transform="matrix(4.16667,0,0,4.16667,0,0)">
            <path d="M1053.12,612.774C1080.99,573.681 1108.86,534.583 1136.71,495.467C1137.14,494.869 1137.93,494.395 1137.49,493.133C1137.16,493.087 1136.82,493 1136.48,493C1080.79,492.993 1025.1,492.99 969.401,493.015C968.441,493.016 967.309,492.461 966.609,494.029C995.092,534.007 1023.57,573.985 1052.06,613.964C1052.41,613.57 1052.8,613.222 1053.12,612.774Z" style="fill:rgb(255,128,0);fill-rule:nonzero;"/>
        </g>
        <g transform="matrix(4.16667,0,0,4.16667,0,0)">
            <path d="M1104.79,785.732C1115.96,770.043 1127.1,754.298 1138.25,738.577C1137.15,737.281 1135.84,737.934 1134.65,737.933C1079.63,737.895 1024.62,737.899 969.611,737.899L966.213,737.899C966.444,740.345 967.668,741.172 968.494,742.333C988.606,770.615 1008.74,798.871 1028.88,827.105C1036.62,837.941 1044.39,848.713 1052.15,859.514L1052.15,859.513C1069.7,834.922 1087.25,810.346 1104.79,785.732Z" style="fill:rgb(128,64,0);fill-rule:nonzero;"/>
        </g>
        <g transform="matrix(4.16667,0,0,4.16667,0,0)">
            <path d="M1396.78,369.994C1341.69,369.946 1286.59,369.949 1231.5,369.977C1230.69,369.977 1229.72,369.478 1228.89,370.829C1229.8,372.168 1230.64,373.439 1231.51,374.659C1252.59,404.254 1273.67,433.852 1294.77,463.427C1301.37,472.681 1308.02,481.871 1314.64,491.091L1314.64,491.09C1343.1,451.193 1371.55,411.295 1400,371.398L1400,370.914C1399.19,369.189 1397.85,369.995 1396.78,369.994Z" style="fill:rgb(255,192,0);fill-rule:nonzero;"/>
        </g>
        <g transform="matrix(4.16667,0,0,4.16667,0,0)">
            <path d="M1050.11,862.356C1049.32,860.233 1047.89,861.135 1046.76,861.134C991.666,861.085 936.575,861.089 881.484,861.116C880.668,861.117 879.707,860.625 878.862,861.959C879.78,863.306 880.612,864.575 881.48,865.793C903.047,896.064 924.611,926.339 946.191,956.591C951.762,964.401 957.37,972.157 962.966,979.93L966.247,979.93C994.2,940.739 1022.15,901.548 1050.11,862.356Z" style="fill:rgb(255,192,0);fill-rule:nonzero;"/>
        </g>
        <g transform="matrix(4.16667,0,0,4.16667,0,0)">
            <path d="M1229.07,616.62C1229.67,617.533 1230.32,618.6 1231.03,619.59C1258.16,657.672 1285.29,695.748 1312.43,733.816C1313.15,734.826 1313.95,735.725 1314.72,736.676L1314.72,736.675C1342.53,697.631 1370.33,658.588 1398.14,619.536C1398.78,618.633 1399.39,617.684 1400,616.736L1400,615.694C1343.4,615.669 1286.81,615.644 1230.21,615.637C1229.82,615.637 1229.26,615.42 1229.07,616.62Z" style="fill:rgb(224,128,0);fill-rule:nonzero;"/>
        </g>
        <g transform="matrix(4.16667,0,0,4.16667,0,0)">
            <path d="M1053.97,119.839C1081.47,81.24 1108.98,42.649 1136.48,4.065C1137.04,3.28 1137.68,2.602 1138.28,1.874C1137.04,0.116 1135.47,0.944 1134.06,0.943C1077.83,0.877 1021.6,0.865 965.362,0.846C994.291,41.456 1023.22,82.066 1052.15,122.676C1052.76,121.728 1053.33,120.739 1053.97,119.839Z" style="fill:rgb(255,192,0);fill-rule:nonzero;"/>
        </g>
        <g transform="matrix(4.16667,0,0,4.16667,0,0)">
            <path d="M1048.11,128.396C1048.99,127.161 1049.81,125.837 1050.65,124.554C993.833,124.53 937.012,124.504 880.191,124.497C879.793,124.497 879.237,124.28 879.052,125.474C879.568,126.273 880.136,127.232 880.762,128.11C908.134,166.532 935.511,204.947 962.894,243.354C963.454,244.139 964.093,244.811 964.695,245.535C992.503,206.491 1020.31,167.448 1048.11,128.396Z" style="fill:rgb(224,128,0);fill-rule:nonzero;"/>
        </g>
        <g transform="matrix(4.16667,0,0,4.16667,0,0)">
            <path d="M1231.12,861.198C1230.24,861.199 1229.01,860.283 1228.51,862.311C1256.46,901.518 1284.42,940.724 1312.37,979.93L1316.42,979.93C1316.5,979.802 1316.59,979.675 1316.67,979.556C1344.06,941.171 1371.43,902.766 1398.78,864.334C1399.15,863.814 1399.7,863.407 1400,862.734L1400,861.276C1399.6,861.226 1399.21,861.16 1398.82,861.16C1342.92,861.154 1287.02,861.148 1231.12,861.198Z" style="fill:rgb(255,128,0);fill-rule:nonzero;"/>
        </g>
    </g>
</svg>