<?xml version="1.0" encoding="UTF-8" standalone="no"?>
<!DOCTYPE svg PUBLIC "-//W3C//DTD SVG 1.1//EN" "http://www.w3.org/Graphics/SVG/1.1/DTD/svg11.dtd">
<svg width="100%" height="100%" viewBox="0 0 690 690" version="1.1" xmlns="http://www.w3.org/2000/svg" xmlns:xlink="http://www.w3.org/1999/xlink" xml:space="preserve" xmlns:serif="http://www.serif.com/" style="fill-rule:evenodd;clip-rule:evenodd;stroke-linejoin:round;stroke-miterlimit:2;">
    <rect id="Artboard1" x="0" y="0" width="689.94" height="689.083" style="fill:none;"/>
    <clipPath id="_clip1">
        <rect id="Artboard11" serif:id="Artboard1" x="0" y="0" width="689.94" height="689.083"/>
    </clipPath>
    <g clip-path="url(#_clip1)">
        <g transform="matrix(-1,0,0,1,344.334,-383.514)">
            <rect x="0.096" y="383.514" width="344.142" height="344.142" style="fill:rgb(0,128,128);"/>
        </g>
        <g transform="matrix(1,0,0,1,86.3514,0.0006)">
            <path d="M0,86.255L-86.283,86.255L-86.283,0L0,86.255Z" style="fill:rgb(0,64,64);fill-rule:nonzero;"/>
        </g>
        <g transform="matrix(1,0,0,1,86.3514,0.1107)">
            <path d="M0,86.035L0,0L86.256,0L0,86.035Z" style="fill:rgb(0,192,192);fill-rule:nonzero;"/>
        </g>
        <g transform="matrix(1,0,0,1,86.3411,172.26)">
            <path d="M0,-86.035L0,0L-86.255,0L0,-86.035Z" style="fill:rgb(0,192,192);fill-rule:nonzero;"/>
        </g>
        <g transform="matrix(1,0,0,1,172.4,258.319)">
            <path d="M0,-86.036L0,0L-86.255,0L0,-86.036Z" style="fill:rgb(0,32,32);fill-rule:nonzero;"/>
        </g>
        <g transform="matrix(1,0,0,1,86.1448,258.319)">
            <path d="M0,-86.036L0,0L86.255,0L0,-86.036Z" style="fill:rgb(0,32,32);fill-rule:nonzero;"/>
        </g>
        <g transform="matrix(1,0,0,1,258.795,344.448)">
            <path d="M0,-86.036L0,0L86.256,0L0,-86.036Z" style="fill:rgb(0,32,32);fill-rule:nonzero;"/>
        </g>
        <g transform="matrix(1,0,0,1,86.3411,172.513)">
            <path d="M0,-86.255L86.035,-86.255L86.035,0L0,-86.255Z" style="fill:rgb(0,64,64);fill-rule:nonzero;"/>
        </g>
        <g transform="matrix(1,0,0,1,258.864,0.0006)">
            <path d="M0,86.255L-86.283,86.255L-86.283,0L0,86.255Z" style="fill:rgb(0,64,64);fill-rule:nonzero;"/>
        </g>
        <g transform="matrix(1,0,0,1,258.864,0.1107)">
            <path d="M0,86.035L0,0L86.256,0L0,86.035Z" style="fill:rgb(0,192,192);fill-rule:nonzero;"/>
        </g>
        <g transform="matrix(1,0,0,1,258.853,172.26)">
            <path d="M0,-86.035L0,0L-86.256,0L0,-86.035Z" style="fill:rgb(0,192,192);fill-rule:nonzero;"/>
        </g>
        <g transform="matrix(1,0,0,1,258.853,172.513)">
            <path d="M0,-86.255L86.034,-86.255L86.034,0L0,-86.255Z" style="fill:rgb(0,64,64);fill-rule:nonzero;"/>
        </g>
        <g transform="matrix(1,0,0,1,86.283,172.155)">
            <path d="M0,86.257L-86.283,86.257L-86.283,0L0,86.257Z" style="fill:rgb(0,64,64);fill-rule:nonzero;"/>
        </g>
        <g transform="matrix(1,0,0,1,86.283,172.266)">
            <path d="M0,86.035L0,0L86.256,0L0,86.035Z" style="fill:rgb(0,192,192);fill-rule:nonzero;"/>
        </g>
        <g transform="matrix(1,0,0,1,0.1277,86.1113)">
            <path d="M0,86.034L0,0L86.256,0L0,86.034Z" style="fill:rgb(0,32,32);fill-rule:nonzero;"/>
        </g>
        <g transform="matrix(1,0,0,1,86.1707,344.516)">
            <path d="M0,-86.035L0,0L86.255,0L0,-86.035Z" style="fill:rgb(0,32,32);fill-rule:nonzero;"/>
        </g>
        <g transform="matrix(1,0,0,1,258.784,172.345)">
            <path d="M0,86.035L0,0L-86.256,0L0,86.035Z" style="fill:rgb(0,32,32);fill-rule:nonzero;"/>
        </g>
        <g transform="matrix(1,0,0,1,258.853,0.1103)">
            <path d="M0,86.035L0,0L-86.256,0L0,86.035Z" style="fill:rgb(0,32,32);fill-rule:nonzero;"/>
        </g>
        <g transform="matrix(1,0,0,1,86.2727,344.414)">
            <path d="M0,-86.035L0,0L-86.256,0L0,-86.035Z" style="fill:rgb(0,192,192);fill-rule:nonzero;"/>
        </g>
        <g transform="matrix(1,0,0,1,86.2713,344.67)">
            <path d="M0,-86.258L86.035,-86.258L86.035,0L0,-86.258Z" style="fill:rgb(0,64,64);fill-rule:nonzero;"/>
        </g>
        <g transform="matrix(1,0,0,1,258.795,172.155)">
            <path d="M0,86.257L-86.284,86.257L-86.284,0L0,86.257Z" style="fill:rgb(0,64,64);fill-rule:nonzero;"/>
        </g>
        <g transform="matrix(1,0,0,1,258.795,172.266)">
            <path d="M0,86.035L0,0L86.256,0L0,86.035Z" style="fill:rgb(0,192,192);fill-rule:nonzero;"/>
        </g>
        <g transform="matrix(1,0,0,1,258.784,344.414)">
            <path d="M0,-86.035L0,0L-86.255,0L0,-86.035Z" style="fill:rgb(0,192,192);fill-rule:nonzero;"/>
        </g>
        <g transform="matrix(1,0,0,1,258.784,344.67)">
            <path d="M0,-86.258L86.036,-86.258L86.036,0L0,-86.258Z" style="fill:rgb(0,64,64);fill-rule:nonzero;"/>
        </g>
        <g transform="matrix(-1,0,0,1,1034.57,-383.514)">
            <rect x="345.216" y="383.514" width="344.142" height="344.142" style="fill:rgb(0,128,128);"/>
        </g>
        <g transform="matrix(1,0,0,1,431.472,0.0006)">
            <path d="M0,86.255L-86.283,86.255L-86.283,0L0,86.255Z" style="fill:rgb(0,64,64);fill-rule:nonzero;"/>
        </g>
        <g transform="matrix(1,0,0,1,431.472,0.1107)">
            <path d="M0,86.035L0,0L86.256,0L0,86.035Z" style="fill:rgb(0,192,192);fill-rule:nonzero;"/>
        </g>
        <g transform="matrix(1,0,0,1,431.461,172.26)">
            <path d="M0,-86.035L0,0L-86.255,0L0,-86.035Z" style="fill:rgb(0,192,192);fill-rule:nonzero;"/>
        </g>
        <g transform="matrix(1,0,0,1,517.52,258.319)">
            <path d="M0,-86.036L0,0L-86.255,0L0,-86.036Z" style="fill:rgb(0,32,32);fill-rule:nonzero;"/>
        </g>
        <g transform="matrix(1,0,0,1,431.265,258.319)">
            <path d="M0,-86.036L0,0L86.255,0L0,-86.036Z" style="fill:rgb(0,32,32);fill-rule:nonzero;"/>
        </g>
        <g transform="matrix(1,0,0,1,603.915,344.448)">
            <path d="M0,-86.036L0,0L86.256,0L0,-86.036Z" style="fill:rgb(0,32,32);fill-rule:nonzero;"/>
        </g>
        <g transform="matrix(1,0,0,1,431.461,172.513)">
            <path d="M0,-86.255L86.035,-86.255L86.035,0L0,-86.255Z" style="fill:rgb(0,64,64);fill-rule:nonzero;"/>
        </g>
        <g transform="matrix(1,0,0,1,603.984,0.0006)">
            <path d="M0,86.255L-86.283,86.255L-86.283,0L0,86.255Z" style="fill:rgb(0,64,64);fill-rule:nonzero;"/>
        </g>
        <g transform="matrix(1,0,0,1,603.984,0.1107)">
            <path d="M0,86.035L0,0L86.256,0L0,86.035Z" style="fill:rgb(0,192,192);fill-rule:nonzero;"/>
        </g>
        <g transform="matrix(1,0,0,1,603.974,172.26)">
            <path d="M0,-86.035L0,0L-86.256,0L0,-86.035Z" style="fill:rgb(0,192,192);fill-rule:nonzero;"/>
        </g>
        <g transform="matrix(1,0,0,1,603.973,172.513)">
            <path d="M0,-86.255L86.034,-86.255L86.034,0L0,-86.255Z" style="fill:rgb(0,64,64);fill-rule:nonzero;"/>
        </g>
        <g transform="matrix(1,0,0,1,431.403,172.155)">
            <path d="M0,86.257L-86.283,86.257L-86.283,0L0,86.257Z" style="fill:rgb(0,64,64);fill-rule:nonzero;"/>
        </g>
        <g transform="matrix(1,0,0,1,431.403,172.266)">
            <path d="M0,86.035L0,0L86.256,0L0,86.035Z" style="fill:rgb(0,192,192);fill-rule:nonzero;"/>
        </g>
        <g transform="matrix(1,0,0,1,345.248,86.1113)">
            <path d="M0,86.034L0,0L86.256,0L0,86.034Z" style="fill:rgb(0,32,32);fill-rule:nonzero;"/>
        </g>
        <g transform="matrix(1,0,0,1,431.291,344.516)">
            <path d="M0,-86.035L0,0L86.255,0L0,-86.035Z" style="fill:rgb(0,32,32);fill-rule:nonzero;"/>
        </g>
        <g transform="matrix(1,0,0,1,603.904,172.345)">
            <path d="M0,86.035L0,0L-86.256,0L0,86.035Z" style="fill:rgb(0,32,32);fill-rule:nonzero;"/>
        </g>
        <g transform="matrix(1,0,0,1,603.974,0.1103)">
            <path d="M0,86.035L0,0L-86.256,0L0,86.035Z" style="fill:rgb(0,32,32);fill-rule:nonzero;"/>
        </g>
        <g transform="matrix(1,0,0,1,431.393,344.414)">
            <path d="M0,-86.035L0,0L-86.256,0L0,-86.035Z" style="fill:rgb(0,192,192);fill-rule:nonzero;"/>
        </g>
        <g transform="matrix(1,0,0,1,431.392,344.67)">
            <path d="M0,-86.258L86.035,-86.258L86.035,0L0,-86.258Z" style="fill:rgb(0,64,64);fill-rule:nonzero;"/>
        </g>
        <g transform="matrix(1,0,0,1,603.915,172.155)">
            <path d="M0,86.257L-86.284,86.257L-86.284,0L0,86.257Z" style="fill:rgb(0,64,64);fill-rule:nonzero;"/>
        </g>
        <g transform="matrix(1,0,0,1,603.915,172.266)">
            <path d="M0,86.035L0,0L86.256,0L0,86.035Z" style="fill:rgb(0,192,192);fill-rule:nonzero;"/>
        </g>
        <g transform="matrix(1,0,0,1,603.904,344.414)">
            <path d="M0,-86.035L0,0L-86.255,0L0,-86.035Z" style="fill:rgb(0,192,192);fill-rule:nonzero;"/>
        </g>
        <g transform="matrix(1,0,0,1,603.904,344.67)">
            <path d="M0,-86.258L86.036,-86.258L86.036,0L0,-86.258Z" style="fill:rgb(0,64,64);fill-rule:nonzero;"/>
        </g>
        <g transform="matrix(-1,0,0,1,344.334,305.824)">
            <rect x="0.096" y="38.845" width="344.142" height="344.142" style="fill:rgb(0,128,128);"/>
        </g>
        <g transform="matrix(1,0,0,1,86.3514,344.67)">
            <path d="M0,86.255L-86.283,86.255L-86.283,0L0,86.255Z" style="fill:rgb(0,64,64);fill-rule:nonzero;"/>
        </g>
        <g transform="matrix(1,0,0,1,86.3514,344.779)">
            <path d="M0,86.036L0,0L86.256,0L0,86.036Z" style="fill:rgb(0,192,192);fill-rule:nonzero;"/>
        </g>
        <g transform="matrix(1,0,0,1,86.3411,516.928)">
            <path d="M0,-86.035L0,0L-86.255,0L0,-86.035Z" style="fill:rgb(0,192,192);fill-rule:nonzero;"/>
        </g>
        <g transform="matrix(1,0,0,1,172.4,602.988)">
            <path d="M0,-86.036L0,0L-86.255,0L0,-86.036Z" style="fill:rgb(0,32,32);fill-rule:nonzero;"/>
        </g>
        <g transform="matrix(1,0,0,1,86.1448,602.988)">
            <path d="M0,-86.036L0,0L86.255,0L0,-86.036Z" style="fill:rgb(0,32,32);fill-rule:nonzero;"/>
        </g>
        <g transform="matrix(1,0,0,1,258.795,689.117)">
            <path d="M0,-86.036L0,0L86.256,0L0,-86.036Z" style="fill:rgb(0,32,32);fill-rule:nonzero;"/>
        </g>
        <g transform="matrix(1,0,0,1,86.3411,517.183)">
            <path d="M0,-86.256L86.035,-86.256L86.035,0L0,-86.256Z" style="fill:rgb(0,64,64);fill-rule:nonzero;"/>
        </g>
        <g transform="matrix(1,0,0,1,258.864,344.67)">
            <path d="M0,86.255L-86.283,86.255L-86.283,0L0,86.255Z" style="fill:rgb(0,64,64);fill-rule:nonzero;"/>
        </g>
        <g transform="matrix(1,0,0,1,258.864,344.779)">
            <path d="M0,86.036L0,0L86.256,0L0,86.036Z" style="fill:rgb(0,192,192);fill-rule:nonzero;"/>
        </g>
        <g transform="matrix(1,0,0,1,258.853,516.928)">
            <path d="M0,-86.035L0,0L-86.256,0L0,-86.035Z" style="fill:rgb(0,192,192);fill-rule:nonzero;"/>
        </g>
        <g transform="matrix(1,0,0,1,258.853,517.183)">
            <path d="M0,-86.256L86.034,-86.256L86.034,0L0,-86.256Z" style="fill:rgb(0,64,64);fill-rule:nonzero;"/>
        </g>
        <g transform="matrix(1,0,0,1,86.283,516.824)">
            <path d="M0,86.257L-86.283,86.257L-86.283,0L0,86.257Z" style="fill:rgb(0,64,64);fill-rule:nonzero;"/>
        </g>
        <g transform="matrix(1,0,0,1,86.283,516.935)">
            <path d="M0,86.035L0,0L86.256,0L0,86.035Z" style="fill:rgb(0,192,192);fill-rule:nonzero;"/>
        </g>
        <g transform="matrix(1,0,0,1,0.1277,430.78)">
            <path d="M0,86.034L0,0L86.256,0L0,86.034Z" style="fill:rgb(0,32,32);fill-rule:nonzero;"/>
        </g>
        <g transform="matrix(1,0,0,1,86.1707,689.185)">
            <path d="M0,-86.035L0,0L86.255,0L0,-86.035Z" style="fill:rgb(0,32,32);fill-rule:nonzero;"/>
        </g>
        <g transform="matrix(1,0,0,1,258.784,517.014)">
            <path d="M0,86.035L0,0L-86.256,0L0,86.035Z" style="fill:rgb(0,32,32);fill-rule:nonzero;"/>
        </g>
        <g transform="matrix(1,0,0,1,258.853,344.779)">
            <path d="M0,86.035L0,0L-86.256,0L0,86.035Z" style="fill:rgb(0,32,32);fill-rule:nonzero;"/>
        </g>
        <g transform="matrix(1,0,0,1,86.2727,689.083)">
            <path d="M0,-86.035L0,0L-86.256,0L0,-86.035Z" style="fill:rgb(0,192,192);fill-rule:nonzero;"/>
        </g>
        <g transform="matrix(1,0,0,1,86.2713,689.339)">
            <path d="M0,-86.258L86.035,-86.258L86.035,0L0,-86.258Z" style="fill:rgb(0,64,64);fill-rule:nonzero;"/>
        </g>
        <g transform="matrix(1,0,0,1,258.795,516.824)">
            <path d="M0,86.257L-86.284,86.257L-86.284,0L0,86.257Z" style="fill:rgb(0,64,64);fill-rule:nonzero;"/>
        </g>
        <g transform="matrix(1,0,0,1,258.795,516.935)">
            <path d="M0,86.035L0,0L86.256,0L0,86.035Z" style="fill:rgb(0,192,192);fill-rule:nonzero;"/>
        </g>
        <g transform="matrix(1,0,0,1,258.784,689.083)">
            <path d="M0,-86.035L0,0L-86.255,0L0,-86.035Z" style="fill:rgb(0,192,192);fill-rule:nonzero;"/>
        </g>
        <g transform="matrix(1,0,0,1,258.784,689.339)">
            <path d="M0,-86.258L86.036,-86.258L86.036,0L0,-86.258Z" style="fill:rgb(0,64,64);fill-rule:nonzero;"/>
        </g>
        <g transform="matrix(-1,0,0,1,1034.57,305.824)">
            <rect x="345.216" y="38.845" width="344.142" height="344.142" style="fill:rgb(0,128,128);"/>
        </g>
        <g transform="matrix(1,0,0,1,431.472,344.67)">
            <path d="M0,86.255L-86.283,86.255L-86.283,0L0,86.255Z" style="fill:rgb(0,64,64);fill-rule:nonzero;"/>
        </g>
        <g transform="matrix(1,0,0,1,431.472,344.779)">
            <path d="M0,86.036L0,0L86.256,0L0,86.036Z" style="fill:rgb(0,192,192);fill-rule:nonzero;"/>
        </g>
        <g transform="matrix(1,0,0,1,431.461,516.928)">
            <path d="M0,-86.035L0,0L-86.255,0L0,-86.035Z" style="fill:rgb(0,192,192);fill-rule:nonzero;"/>
        </g>
        <g transform="matrix(1,0,0,1,517.52,602.988)">
            <path d="M0,-86.036L0,0L-86.255,0L0,-86.036Z" style="fill:rgb(0,32,32);fill-rule:nonzero;"/>
        </g>
        <g transform="matrix(1,0,0,1,431.265,602.988)">
            <path d="M0,-86.036L0,0L86.255,0L0,-86.036Z" style="fill:rgb(0,32,32);fill-rule:nonzero;"/>
        </g>
        <g transform="matrix(1,0,0,1,603.915,689.117)">
            <path d="M0,-86.036L0,0L86.256,0L0,-86.036Z" style="fill:rgb(0,32,32);fill-rule:nonzero;"/>
        </g>
        <g transform="matrix(1,0,0,1,431.461,517.183)">
            <path d="M0,-86.256L86.035,-86.256L86.035,0L0,-86.256Z" style="fill:rgb(0,64,64);fill-rule:nonzero;"/>
        </g>
        <g transform="matrix(1,0,0,1,603.984,344.67)">
            <path d="M0,86.255L-86.283,86.255L-86.283,0L0,86.255Z" style="fill:rgb(0,64,64);fill-rule:nonzero;"/>
        </g>
        <g transform="matrix(1,0,0,1,603.984,344.779)">
            <path d="M0,86.036L0,0L86.256,0L0,86.036Z" style="fill:rgb(0,192,192);fill-rule:nonzero;"/>
        </g>
        <g transform="matrix(1,0,0,1,603.974,516.928)">
            <path d="M0,-86.035L0,0L-86.256,0L0,-86.035Z" style="fill:rgb(0,192,192);fill-rule:nonzero;"/>
        </g>
        <g transform="matrix(1,0,0,1,603.973,517.183)">
            <path d="M0,-86.256L86.034,-86.256L86.034,0L0,-86.256Z" style="fill:rgb(0,64,64);fill-rule:nonzero;"/>
        </g>
        <g transform="matrix(1,0,0,1,431.403,516.824)">
            <path d="M0,86.257L-86.283,86.257L-86.283,0L0,86.257Z" style="fill:rgb(0,64,64);fill-rule:nonzero;"/>
        </g>
        <g transform="matrix(1,0,0,1,431.403,516.935)">
            <path d="M0,86.035L0,0L86.256,0L0,86.035Z" style="fill:rgb(0,192,192);fill-rule:nonzero;"/>
        </g>
        <g transform="matrix(1,0,0,1,345.248,430.78)">
            <path d="M0,86.034L0,0L86.256,0L0,86.034Z" style="fill:rgb(0,32,32);fill-rule:nonzero;"/>
        </g>
        <g transform="matrix(1,0,0,1,431.291,689.185)">
            <path d="M0,-86.035L0,0L86.255,0L0,-86.035Z" style="fill:rgb(0,32,32);fill-rule:nonzero;"/>
        </g>
        <g transform="matrix(1,0,0,1,603.904,517.014)">
            <path d="M0,86.035L0,0L-86.256,0L0,86.035Z" style="fill:rgb(0,32,32);fill-rule:nonzero;"/>
        </g>
        <g transform="matrix(1,0,0,1,603.974,344.779)">
            <path d="M0,86.035L0,0L-86.256,0L0,86.035Z" style="fill:rgb(0,32,32);fill-rule:nonzero;"/>
        </g>
        <g transform="matrix(1,0,0,1,431.393,689.083)">
            <path d="M0,-86.035L0,0L-86.256,0L0,-86.035Z" style="fill:rgb(0,192,192);fill-rule:nonzero;"/>
        </g>
        <g transform="matrix(1,0,0,1,431.392,689.339)">
            <path d="M0,-86.258L86.035,-86.258L86.035,0L0,-86.258Z" style="fill:rgb(0,64,64);fill-rule:nonzero;"/>
        </g>
        <g transform="matrix(1,0,0,1,603.915,516.824)">
            <path d="M0,86.257L-86.284,86.257L-86.284,0L0,86.257Z" style="fill:rgb(0,64,64);fill-rule:nonzero;"/>
        </g>
        <g transform="matrix(1,0,0,1,603.915,516.935)">
            <path d="M0,86.035L0,0L86.256,0L0,86.035Z" style="fill:rgb(0,192,192);fill-rule:nonzero;"/>
        </g>
        <g transform="matrix(1,0,0,1,603.904,689.083)">
            <path d="M0,-86.035L0,0L-86.255,0L0,-86.035Z" style="fill:rgb(0,192,192);fill-rule:nonzero;"/>
        </g>
        <g transform="matrix(1,0,0,1,603.904,689.339)">
            <path d="M0,-86.258L86.036,-86.258L86.036,0L0,-86.258Z" style="fill:rgb(0,64,64);fill-rule:nonzero;"/>
        </g>
    </g>
</svg>