<?xml version="1.0" encoding="UTF-8" standalone="no"?>
<!DOCTYPE svg PUBLIC "-//W3C//DTD SVG 1.1//EN" "http://www.w3.org/Graphics/SVG/1.1/DTD/svg11.dtd">
<svg width="100%" height="100%" viewBox="0 0 2550 2546" version="1.1" xmlns="http://www.w3.org/2000/svg" xmlns:xlink="http://www.w3.org/1999/xlink" xml:space="preserve" xmlns:serif="http://www.serif.com/" style="fill-rule:evenodd;clip-rule:evenodd;stroke-linecap:round;stroke-linejoin:round;stroke-miterlimit:1.5;">
    <rect id="Artboard1" x="0" y="0" width="2550" height="2546" style="fill:none;"/>
    <clipPath id="_clip1">
        <rect id="Artboard11" serif:id="Artboard1" x="0" y="0" width="2550" height="2546"/>
    </clipPath>
    <g clip-path="url(#_clip1)">
        <g transform="matrix(1,0,0,0.916915,0,0)">
            <rect x="0" y="0" width="2550" height="2776.7" style="fill:rgb(64,0,64);"/>
        </g>
        <g transform="matrix(-0.414495,-0.414495,1.02309,-1.02309,847.249,3731.66)">
            <rect x="602.399" y="0" width="274.132" height="2546" style="fill:rgb(160,0,160);"/>
        </g>
        <g transform="matrix(0.414495,-0.414495,1.02309,1.02309,731.166,-665.871)">
            <rect x="602.399" y="0" width="274.132" height="2546" style="fill:rgb(160,0,160);"/>
        </g>
        <g transform="matrix(-0.707107,-0.707107,1.02309,-1.02309,501.625,3178.05)">
            <rect x="602.399" y="0" width="274.132" height="2546" style="fill:rgb(192,0,192);"/>
        </g>
        <g transform="matrix(0.414606,-0.414385,1.02281,1.02336,-1358.08,1032.06)">
            <rect x="602.399" y="0" width="274.132" height="2546" style="fill:rgb(96,0,96);"/>
        </g>
        <g transform="matrix(0.927882,-0.927882,1.02309,1.02309,-1231.28,1072.97)">
            <rect x="602.399" y="0" width="274.132" height="2546" style="fill:rgb(128,0,128);"/>
        </g>
        <g transform="matrix(-0.707107,-0.707107,1.02309,-1.02308,829.903,3544.76)">
            <rect x="602.399" y="0" width="274.132" height="2546" style="fill:rgb(16,0,16);"/>
        </g>
        <g transform="matrix(0.707295,-0.706918,1.02281,1.02336,-600.027,493.004)">
            <rect x="602.399" y="0" width="274.132" height="2546" style="fill:rgb(16,0,16);"/>
        </g>
        <g transform="matrix(0.707107,-0.707107,1.02309,1.02309,-215.865,177.975)">
            <rect x="602.399" y="0" width="274.132" height="2546" style="fill:rgb(192,0,192);"/>
        </g>
        <g transform="matrix(-0.927882,-0.927882,1.02309,-1.02309,60.4844,2452.73)">
            <rect x="602.399" y="0" width="274.132" height="2546" style="fill:rgb(128,0,128);"/>
        </g>
        <g transform="matrix(0.92813,-0.927635,1.02281,1.02336,125.411,52.0561)">
            <rect x="602.399" y="0" width="274.132" height="2546" style="fill:rgb(16,0,16);stroke:rgb(32,0,32);stroke-width:0.72px;"/>
        </g>
        <g transform="matrix(-0.927882,-0.927883,1.02309,-1.02308,1728.52,4375.57)">
            <rect x="602.399" y="0" width="274.132" height="2546" style="fill:rgb(16,0,16);stroke:rgb(32,0,32);stroke-width:0.72px;"/>
        </g>
        <g transform="matrix(-0.414496,-0.414496,1.02309,-1.02308,-671.158,1868.54)">
            <rect x="602.399" y="0" width="274.132" height="2546" style="fill:rgb(96,0,96);"/>
        </g>
    </g>
</svg>
