<?xml version="1.0" encoding="UTF-8" standalone="no"?>
<!DOCTYPE svg PUBLIC "-//W3C//DTD SVG 1.1//EN" "http://www.w3.org/Graphics/SVG/1.1/DTD/svg11.dtd">
<svg width="100%" height="100%" viewBox="0 0 400 400" version="1.1" xmlns="http://www.w3.org/2000/svg" xmlns:xlink="http://www.w3.org/1999/xlink" xml:space="preserve" xmlns:serif="http://www.serif.com/" style="fill-rule:evenodd;clip-rule:evenodd;stroke-linejoin:round;stroke-miterlimit:2;">
    <rect id="Artboard1" x="0" y="0" width="400" height="400" style="fill:none;"/>
    <clipPath id="_clip1">
        <rect id="Artboard11" serif:id="Artboard1" x="0" y="0" width="400" height="400"/>
    </clipPath>
    <g clip-path="url(#_clip1)">
        <rect x="0" y="0" width="400" height="400" style="fill:white;"/>
        <g>
            <g transform="matrix(0.896308,-0.896308,0.893626,0.893626,-152.299,393.981)">
                <rect x="66.944" y="73.881" width="50.49" height="50.642"/>
            </g>
            <g transform="matrix(0.896308,-0.896308,0.893626,0.893626,-61.7889,393.981)">
                <rect x="66.944" y="73.881" width="50.49" height="50.642"/>
            </g>
            <g transform="matrix(0.896308,-0.896308,0.893626,0.893626,28.7208,393.981)">
                <rect x="66.944" y="73.881" width="50.49" height="50.642"/>
            </g>
            <g transform="matrix(0.896308,-0.896308,0.893626,0.893626,119.23,393.981)">
                <rect x="66.944" y="73.881" width="50.49" height="50.642"/>
            </g>
            <g transform="matrix(0.896308,-0.896308,0.893626,0.893626,209.74,393.981)">
                <rect x="66.944" y="73.881" width="50.49" height="50.642"/>
            </g>
        </g>
        <g transform="matrix(1,0,0,1,-0.176095,0)">
            <g transform="matrix(0.896308,-0.896308,0.893626,0.893626,-106.868,348.726)">
                <rect x="66.944" y="73.881" width="50.49" height="50.642" style="fill:rgb(32,32,0);"/>
            </g>
            <g transform="matrix(0.896308,-0.896308,0.893626,0.893626,-16.3579,348.726)">
                <rect x="66.944" y="73.881" width="50.49" height="50.642" style="fill:rgb(32,32,0);"/>
            </g>
            <g transform="matrix(0.896308,-0.896308,0.893626,0.893626,74.1517,348.726)">
                <rect x="66.944" y="73.881" width="50.49" height="50.642" style="fill:rgb(32,32,0);"/>
            </g>
            <g transform="matrix(0.896308,-0.896308,0.893626,0.893626,164.661,348.726)">
                <rect x="66.944" y="73.881" width="50.49" height="50.642" style="fill:rgb(32,32,0);"/>
            </g>
            <g transform="matrix(0.896308,-0.896308,0.893626,0.893626,255.171,348.726)">
                <rect x="66.944" y="73.881" width="50.49" height="50.642" style="fill:rgb(32,32,0);"/>
            </g>
            <g transform="matrix(0.896308,-0.896308,0.893626,0.893626,-197.377,348.726)">
                <rect x="66.944" y="73.881" width="50.49" height="50.642" style="fill:rgb(32,32,0);"/>
            </g>
        </g>
        <g transform="matrix(1,0,0,1,0,-90.5097)">
            <g transform="matrix(0.896308,-0.896308,0.893626,0.893626,-152.299,393.981)">
                <rect x="66.944" y="73.881" width="50.49" height="50.642" style="fill:rgb(64,64,0);"/>
            </g>
            <g transform="matrix(0.896308,-0.896308,0.893626,0.893626,-61.7889,393.981)">
                <rect x="66.944" y="73.881" width="50.49" height="50.642" style="fill:rgb(64,64,0);"/>
            </g>
            <g transform="matrix(0.896308,-0.896308,0.893626,0.893626,28.7208,393.981)">
                <rect x="66.944" y="73.881" width="50.49" height="50.642" style="fill:rgb(64,64,0);"/>
            </g>
            <g transform="matrix(0.896308,-0.896308,0.893626,0.893626,119.23,393.981)">
                <rect x="66.944" y="73.881" width="50.49" height="50.642" style="fill:rgb(64,64,0);"/>
            </g>
            <g transform="matrix(0.896308,-0.896308,0.893626,0.893626,209.74,393.981)">
                <rect x="66.944" y="73.881" width="50.49" height="50.642" style="fill:rgb(64,64,0);"/>
            </g>
        </g>
        <g transform="matrix(1,0,0,1,-0.176095,-90.5097)">
            <g transform="matrix(0.896308,-0.896308,0.893626,0.893626,-106.868,348.726)">
                <rect x="66.944" y="73.881" width="50.49" height="50.642" style="fill:rgb(96,96,0);"/>
            </g>
            <g transform="matrix(0.896308,-0.896308,0.893626,0.893626,-16.3579,348.726)">
                <rect x="66.944" y="73.881" width="50.49" height="50.642" style="fill:rgb(96,96,0);"/>
            </g>
            <g transform="matrix(0.896308,-0.896308,0.893626,0.893626,74.1517,348.726)">
                <rect x="66.944" y="73.881" width="50.49" height="50.642" style="fill:rgb(96,96,0);"/>
            </g>
            <g transform="matrix(0.896308,-0.896308,0.893626,0.893626,164.661,348.726)">
                <rect x="66.944" y="73.881" width="50.49" height="50.642" style="fill:rgb(96,96,0);"/>
            </g>
            <g transform="matrix(0.896308,-0.896308,0.893626,0.893626,255.171,348.726)">
                <rect x="66.944" y="73.881" width="50.49" height="50.642" style="fill:rgb(96,96,0);"/>
            </g>
            <g transform="matrix(0.896308,-0.896308,0.893626,0.893626,-197.377,348.726)">
                <rect x="66.944" y="73.881" width="50.49" height="50.642" style="fill:rgb(96,96,0);"/>
            </g>
        </g>
        <g transform="matrix(1,0,0,1,-2.84217e-14,-181.019)">
            <g transform="matrix(0.896308,-0.896308,0.893626,0.893626,-152.299,393.981)">
                <rect x="66.944" y="73.881" width="50.49" height="50.642" style="fill:rgb(128,128,0);"/>
            </g>
            <g transform="matrix(0.896308,-0.896308,0.893626,0.893626,-61.7889,393.981)">
                <rect x="66.944" y="73.881" width="50.49" height="50.642" style="fill:rgb(128,128,0);"/>
            </g>
            <g transform="matrix(0.896308,-0.896308,0.893626,0.893626,28.7208,393.981)">
                <rect x="66.944" y="73.881" width="50.49" height="50.642" style="fill:rgb(128,128,0);"/>
            </g>
            <g transform="matrix(0.896308,-0.896308,0.893626,0.893626,119.23,393.981)">
                <rect x="66.944" y="73.881" width="50.49" height="50.642" style="fill:rgb(128,128,0);"/>
            </g>
            <g transform="matrix(0.896308,-0.896308,0.893626,0.893626,209.74,393.981)">
                <rect x="66.944" y="73.881" width="50.49" height="50.642" style="fill:rgb(128,128,0);"/>
            </g>
        </g>
        <g transform="matrix(1,0,0,1,-0.176095,-181.019)">
            <g transform="matrix(0.896308,-0.896308,0.893626,0.893626,-106.868,348.726)">
                <rect x="66.944" y="73.881" width="50.49" height="50.642" style="fill:rgb(160,160,0);"/>
            </g>
            <g transform="matrix(0.896308,-0.896308,0.893626,0.893626,-16.3579,348.726)">
                <rect x="66.944" y="73.881" width="50.49" height="50.642" style="fill:rgb(160,160,0);"/>
            </g>
            <g transform="matrix(0.896308,-0.896308,0.893626,0.893626,74.1517,348.726)">
                <rect x="66.944" y="73.881" width="50.49" height="50.642" style="fill:rgb(160,160,0);"/>
            </g>
            <g transform="matrix(0.896308,-0.896308,0.893626,0.893626,164.661,348.726)">
                <rect x="66.944" y="73.881" width="50.49" height="50.642" style="fill:rgb(160,160,0);"/>
            </g>
            <g transform="matrix(0.896308,-0.896308,0.893626,0.893626,255.171,348.726)">
                <rect x="66.944" y="73.881" width="50.49" height="50.642" style="fill:rgb(160,160,0);"/>
            </g>
            <g transform="matrix(0.896308,-0.896308,0.893626,0.893626,-197.377,348.726)">
                <rect x="66.944" y="73.881" width="50.49" height="50.642" style="fill:rgb(160,160,0);"/>
            </g>
        </g>
        <g transform="matrix(1,0,0,1,-2.84217e-14,-271.529)">
            <g transform="matrix(0.896308,-0.896308,0.893626,0.893626,-152.299,393.981)">
                <rect x="66.944" y="73.881" width="50.49" height="50.642" style="fill:rgb(192,192,0);"/>
            </g>
            <g transform="matrix(0.896308,-0.896308,0.893626,0.893626,-61.7889,393.981)">
                <rect x="66.944" y="73.881" width="50.49" height="50.642" style="fill:rgb(192,192,0);"/>
            </g>
            <g transform="matrix(0.896308,-0.896308,0.893626,0.893626,28.7208,393.981)">
                <rect x="66.944" y="73.881" width="50.49" height="50.642" style="fill:rgb(192,192,0);"/>
            </g>
            <g transform="matrix(0.896308,-0.896308,0.893626,0.893626,119.23,393.981)">
                <rect x="66.944" y="73.881" width="50.49" height="50.642" style="fill:rgb(192,192,0);"/>
            </g>
            <g transform="matrix(0.896308,-0.896308,0.893626,0.893626,209.74,393.981)">
                <rect x="66.944" y="73.881" width="50.49" height="50.642" style="fill:rgb(192,192,0);"/>
            </g>
        </g>
        <g transform="matrix(1,0,0,1,-0.176095,-271.529)">
            <g transform="matrix(0.896308,-0.896308,0.893626,0.893626,-106.868,348.726)">
                <rect x="66.944" y="73.881" width="50.49" height="50.642" style="fill:rgb(224,224,0);"/>
            </g>
            <g transform="matrix(0.896308,-0.896308,0.893626,0.893626,-16.3579,348.726)">
                <rect x="66.944" y="73.881" width="50.49" height="50.642" style="fill:rgb(224,224,0);"/>
            </g>
            <g transform="matrix(0.896308,-0.896308,0.893626,0.893626,74.1517,348.726)">
                <rect x="66.944" y="73.881" width="50.49" height="50.642" style="fill:rgb(224,224,0);"/>
            </g>
            <g transform="matrix(0.896308,-0.896308,0.893626,0.893626,164.661,348.726)">
                <rect x="66.944" y="73.881" width="50.49" height="50.642" style="fill:rgb(224,224,0);"/>
            </g>
            <g transform="matrix(0.896308,-0.896308,0.893626,0.893626,255.171,348.726)">
                <rect x="66.944" y="73.881" width="50.49" height="50.642" style="fill:rgb(224,224,0);"/>
            </g>
            <g transform="matrix(0.896308,-0.896308,0.893626,0.893626,-197.377,348.726)">
                <rect x="66.944" y="73.881" width="50.49" height="50.642" style="fill:rgb(224,224,0);"/>
            </g>
        </g>
        <g transform="matrix(1,0,0,1,8.52651e-14,-362.039)">
            <g transform="matrix(0.896308,-0.896308,0.893626,0.893626,-152.299,393.981)">
                <rect x="66.944" y="73.881" width="50.49" height="50.642" style="fill:rgb(255,255,0);"/>
            </g>
            <g transform="matrix(0.896308,-0.896308,0.893626,0.893626,-61.7889,393.981)">
                <rect x="66.944" y="73.881" width="50.49" height="50.642" style="fill:rgb(255,255,0);"/>
            </g>
            <g transform="matrix(0.896308,-0.896308,0.893626,0.893626,28.7208,393.981)">
                <rect x="66.944" y="73.881" width="50.49" height="50.642" style="fill:rgb(255,255,0);"/>
            </g>
            <g transform="matrix(0.896308,-0.896308,0.893626,0.893626,119.23,393.981)">
                <rect x="66.944" y="73.881" width="50.49" height="50.642" style="fill:rgb(255,255,0);"/>
            </g>
            <g transform="matrix(0.896308,-0.896308,0.893626,0.893626,209.74,393.981)">
                <rect x="66.944" y="73.881" width="50.49" height="50.642" style="fill:rgb(255,255,0);"/>
            </g>
        </g>
    </g>
</svg>